<?xml version="1.0" standalone="no"?>
<!DOCTYPE svg PUBLIC "-//W3C//DTD SVG 1.1//EN" "http://www.w3.org/Graphics/SVG/1.1/DTD/svg11.dtd" >
<svg xmlns="http://www.w3.org/2000/svg">
<metadata>
Created by FontPrep 20130207 at Mon Feb  1 21:44:27 2016
 By Steve Graegert
Copyright (c) 1988, 1990, 1993, 2003 Linotype Library GmbH, www.linotype.com. All rights reserved. Copyright (c) 1988, 1990, 1993 Adobe Systems Incorporated. All Rights Reserved.
</metadata>
<defs>
<font id="8f28043732d2060bef76991c05f6633a" horiz-adv-x='1024' >
  <font-face 
    font-family="HelveticaNeueLTPro-BdIt"
    font-weight="700"
    font-style="italic"
    font-stretch="normal"
    units-per-em="2048"
    panose-1="2 11 8 4 2 2 2 9 2 4"
    ascent="1462"
    descent="-586"
    x-height="1059"
    cap-height="1462"
    bbox="-340 -444.22 2312 2020"
    underline-thickness="102"
    underline-position="-102"
    slope="-12"
    unicode-range="U+000D-FB02"
  />
<missing-glyph horiz-adv-x="1048" 
d="M1049 1470v-1470h-1049v1470h1049zM946 102v1264h-844v-1264h844zM524 1145q-145 0 -168 -195l-102 17q14 141 88 211t186 70t185 -74q72 -74 71 -195q0 -70 -26 -123t-103 -122q-76 -68 -88 -108t-12 -147h-94l-4 35q1 115 29 169t92 118q63 59 82 94q20 35 20 93
t-46 107q-46 50 -110 50zM455 240v137h114v-137h-114z" />
    <glyph glyph-name="IJ" unicode="IJ" horiz-adv-x="1751" 
d="M578 319q0 84 26 226h293q-29 -127 -29 -181t46 -92t100 -36q102 1 131 30t42 43q13 15 26 55t18 55q4 15 16 66l203 977h324l-218 -1046q-102 -451 -514 -451q-210 0 -337 87t-127 267zM301 1462h324l-310 -1462h-323z" />
    <glyph glyph-name="ij" unicode="ij" horiz-adv-x="1103" 
d="M451 -133q29 0 47 14t35 59q18 45 25 77t9 40l211 1002h291l-231 -1098q-39 -178 -122 -256t-272 -78q-26 0 -74 5t-67 6l49 233q70 -4 99 -4zM1100 1223h-293l53 239h293zM201 1059h293l-226 -1059h-293zM526 1223h-293l54 239h293z" />
    <glyph glyph-name="napostrophe" unicode="&#x22;n" horiz-adv-x="1292" 
d="M197 1653h297l-31 -150q-31 -119 -106 -157t-212 -35l17 75q100 10 133 76h-137zM858 1087q309 0 309 -284q0 -34 -14 -103t-16 -79l-131 -621h-291l129 621q18 98 18 136q0 37 -43 69t-96 32q-123 0 -196 -84t-101 -211l-119 -563h-291l222 1059h278l-33 -148h4
q141 176 371 176z" />
    <glyph glyph-name="fi" unicode="fi" horiz-adv-x="1251" 
d="M1247 1223h-291l54 239h290zM924 1059h290l-225 -1059h-291zM660 1475q100 0 202 -17l-45 -209q-93 6 -109 6q-98 0 -122 -68q-16 -45 -24 -78q-7 -34 -11 -50h207l-41 -195h-209l-182 -864h-291l182 864h-172l41 195h174q25 117 46 181q56 166 182 210q72 25 172 25z
" />
    <glyph glyph-name="fl" unicode="fl" horiz-adv-x="1251" 
d="M1008 1462h290l-311 -1462h-291zM660 1475q100 0 202 -17l-45 -209q-93 6 -109 6q-98 0 -122 -68q-16 -45 -24 -78q-7 -34 -11 -50h207l-41 -195h-209l-182 -864h-291l182 864h-172l41 195h174q25 117 46 181q56 166 182 210q72 25 172 25z" />
    <glyph glyph-name=".notdef" horiz-adv-x="1048" 
d="M1049 1470v-1470h-1049v1470h1049zM946 102v1264h-844v-1264h844zM524 1145q-145 0 -168 -195l-102 17q14 141 88 211t186 70t185 -74q72 -74 71 -195q0 -70 -26 -123t-103 -122q-76 -68 -88 -108t-12 -147h-94l-4 35q1 115 29 169t92 118q63 59 82 94q20 35 20 93
t-46 107q-46 50 -110 50zM455 240v137h114v-137h-114z" />
    <glyph glyph-name=".null" horiz-adv-x="1024" 
 />
    <glyph glyph-name=".null" horiz-adv-x="1024" 
 />
    <glyph glyph-name="nonmarkingreturn" horiz-adv-x="681" 
 />
    <glyph glyph-name="CR" unicode="&#xd;" horiz-adv-x="0" 
 />
    <glyph glyph-name="space" unicode=" " horiz-adv-x="569" 
 />
    <glyph glyph-name="exclam" unicode="!" horiz-adv-x="606" 
d="M59 315h324l-68 -315h-323zM530 1065l-215 -627h-143l51 627l84 397h309z" />
    <glyph glyph-name="quotedbl" unicode="&#x22;" horiz-adv-x="985" 
d="M641 1462h219v-657h-219v657zM260 1462h219v-657h-219v657z" />
    <glyph glyph-name="numbersign" unicode="#" horiz-adv-x="1138" 
d="M223 406h-170l21 184h174l37 254h-170l20 184h174l58 406h198l-57 -406h199l55 406h199l-56 -406h172l-20 -184h-178l-35 -254h172l-21 -184h-178l-55 -406h-199l55 406h-196l-57 -406h-199zM483 844l-37 -254h199l35 254h-197z" />
    <glyph glyph-name="dollar" unicode="$" horiz-adv-x="1138" 
d="M801 418q0 51 -27 91t-57 58q-31 18 -78 39l-78 -401q94 0 167 53t73 160zM647 1257q-81 0 -149 -47t-68 -133q0 -113 166 -168l66 348h-15zM702 1497h7l32 162h99l-35 -176q166 -35 265 -148t83 -299h-281q8 150 -116 203l-68 -362q78 -25 123 -42t104 -51t91 -74
q77 -99 76 -240q-2 -270 -176 -387q-175 -118 -390 -118l-35 -178h-100l37 184q-207 23 -308 149t-98 372h281q-8 -246 170 -277l82 422l-23 8q-94 33 -147 57q-156 72 -199 185q-27 70 -26 168q0 217 160 329t392 113z" />
    <glyph glyph-name="percent" unicode="%" horiz-adv-x="1972" 
d="M150 987q0 195 103 335t292 140q155 0 239 -79t84 -232q0 -201 -112 -344t-305 -143q-145 0 -224 89q-77 89 -77 234zM358 950q0 -133 107 -133q68 0 115 73q79 123 79 304q0 47 -26 81q-27 34 -72 34q-74 0 -123 -68q-80 -111 -80 -291zM1460 1479h174l-1099 -1524h-177
zM1319 258q0 -133 106 -133q68 0 115 73q80 124 80 304q0 47 -27 81t-71 33q-74 0 -123 -68q-80 -110 -80 -290zM1110 295q0 195 103 335t292 140q156 0 240 -79t84 -232q0 -201 -113 -344t-305 -144q-145 -1 -223 89t-78 235z" />
    <glyph glyph-name="ampersand" unicode="&#x26;" horiz-adv-x="1402" 
d="M506 211q109 0 242 108l-201 326q-6 -2 -38 -20q-32 -17 -39 -23t-34 -22t-35 -24l-28 -28q-20 -19 -40 -59t-20 -103q1 -63 59 -109t134 -46zM33 375q0 309 395 465q-98 166 -98 258q0 176 111 278q112 102 283 102t282 -86q111 -87 110 -245q0 -94 -56 -175t-118 -125
t-162 -97l158 -254q76 78 106 206h261q-49 -252 -232 -415l187 -287h-320l-66 115q-176 -143 -376 -143t-333 109q-132 110 -132 294zM742 1284q-60 0 -106 -38t-46 -114q0 -75 78 -202q80 37 144 93q64 55 65 119q0 64 -37 103q-38 39 -98 39z" />
    <glyph glyph-name="quotesingle" unicode="'" horiz-adv-x="569" 
d="M225 1462h219v-657h-219v657z" />
    <glyph glyph-name="parenleft" unicode="(" horiz-adv-x="606" 
d="M324 166q0 -201 77 -539h-221q-53 119 -90 319t-37 337q0 358 117 628t367 586h256q-261 -344 -365 -650t-104 -681z" />
    <glyph glyph-name="parenright" unicode=")" horiz-adv-x="606" 
d="M510 842q0 -356 -117 -626t-366 -589h-256q260 345 364 651t105 680q0 201 -78 539h221q51 -123 89 -323t38 -332z" />
    <glyph glyph-name="asterisk" unicode="*" horiz-adv-x="833" 
d="M592 1192l248 47l28 -162l-245 -37l116 -215l-147 -80l-113 224l-176 -199l-119 115l183 188l-222 107l70 149l223 -112l35 245l168 -8z" />
    <glyph glyph-name="plus" unicode="+" horiz-adv-x="1228" 
d="M98 627h408v407h219v-407h408v-219h-408v-408h-219v408h-408v219z" />
    <glyph glyph-name="comma" unicode="," horiz-adv-x="569" 
d="M39 315h323q-12 -49 -27 -128q-54 -284 -106 -359q-77 -113 -179 -145q-65 -20 -148 -25l30 145q86 13 125 59t58 138h-142z" />
    <glyph glyph-name="hyphen" unicode="-" horiz-adv-x="833" 
d="M109 684h616l-53 -250h-617z" />
    <glyph glyph-name="period" unicode="." horiz-adv-x="569" 
d="M41 315h324l-68 -315h-324z" />
    <glyph glyph-name="slash" unicode="/" horiz-adv-x="796" 
d="M567 1497h234l-572 -1532h-233z" />
    <glyph glyph-name="zero" unicode="0" horiz-adv-x="1138" 
d="M-8 522q0 328 166 621q80 141 214 230t298 89q233 0 356 -147t123 -406t-116 -516t-330 -363q-118 -58 -257 -59q-230 -1 -342 155t-112 396zM283 463q0 -252 200 -252q84 0 152 60q67 61 107 149t78 234t38 286q0 283 -209 283q-100 0 -177 -88q-125 -143 -172 -465
q-17 -117 -17 -207z" />
    <glyph glyph-name="one" unicode="1" horiz-adv-x="1138" 
d="M662 0h-310l197 930h-350l47 219q178 9 293 69t188 216h238z" />
    <glyph glyph-name="two" unicode="2" horiz-adv-x="1138" 
d="M852 1012q0 200 -228 200q-108 0 -181 -86t-76 -208h-277q20 256 174 400t382 144t363 -110q134 -110 134 -322q1 -119 -61 -218t-163 -172t-207 -132q-300 -168 -384 -258h706l-57 -250h-1063q13 181 100 297q47 61 90 106q100 104 388 250q20 12 88 49q206 112 250 208
q22 46 22 102z" />
    <glyph glyph-name="three" unicode="3" horiz-adv-x="1138" 
d="M844 1037q0 186 -216 186q-102 1 -165 -59t-90 -187h-277q33 233 179 359q145 126 359 126t352 -91t138 -284q0 -125 -74 -215t-196 -114v-4q201 -63 201 -299t-167 -360t-426 -124t-387 132t-112 389h277q-14 -129 46 -205t184 -76t202 70t78 175q0 193 -203 193h-105
l39 205h88q113 0 194 44t81 139z" />
    <glyph glyph-name="four" unicode="4" horiz-adv-x="1138" 
d="M643 571l117 551h-4l-539 -551h426zM920 571h190l-51 -239h-191l-71 -332h-277l72 332h-666l54 264l839 838h283z" />
    <glyph glyph-name="five" unicode="5" horiz-adv-x="1138" 
d="M776 512q0 242 -244 244q-147 0 -229 -121h-262l250 799h848l-52 -240h-610l-94 -305l4 -4q57 45 117 67t164 23q166 0 282 -118t117 -310q0 -262 -168 -419q-167 -157 -415 -157q-503 0 -519 447h281q2 -102 68 -155q66 -52 180 -52t198 86t84 215z" />
    <glyph glyph-name="six" unicode="6" horiz-adv-x="1138" 
d="M797 498q-1 123 -61 184t-172 61q-112 -1 -184 -85t-73 -196t61 -182q62 -69 172 -69t184 82q73 82 73 205zM719 1243q-161 0 -251 -148q-75 -125 -124 -280l4 -4q104 152 308 152t318 -119t114 -335t-160 -377t-408 -161t-370 158q-123 158 -123 426q0 387 190 647
t512 260q199 0 322 -99t131 -300h-281q-2 82 -52 131t-130 49z" />
    <glyph glyph-name="seven" unicode="7" horiz-adv-x="1138" 
d="M1157 1184q-239 -197 -433 -531t-275 -653h-310q74 295 274 625t427 538h-705l58 271h1017z" />
    <glyph glyph-name="eight" unicode="8" horiz-adv-x="1138" 
d="M250 424q0 -110 75 -172t191 -62t191 65t75 175t-76 171q-77 61 -189 61q-111 0 -189 -64t-78 -174zM139 1042q0 193 154 307q154 113 370 113q215 0 339 -112t124 -273q0 -106 -78 -200t-198 -119v-4q90 -20 157 -116t66 -206q0 -209 -173 -335t-406 -126t-384 119
t-151 303q0 293 358 379v4q-78 38 -128 108t-50 158zM399 1042q0 -94 73 -140t165 -46t161 52q68 52 68 144t-64 142q-64 49 -170 49q-106 1 -170 -53t-63 -148z" />
    <glyph glyph-name="nine" unicode="9" horiz-adv-x="1138" 
d="M360 936q0 -123 60 -184q60 -62 173 -62t185 85t72 197t-62 182q-62 69 -172 69t-183 -82t-73 -205zM502 471q-203 0 -318 119q-114 118 -114 334t159 378q160 160 408 160t371 -158t122 -425q0 -387 -190 -647t-512 -261q-199 -1 -322 99t-131 301h281q2 -82 52 -131
q50 -50 130 -50q160 -1 251 148q73 119 124 280l-4 5q-104 -152 -307 -152z" />
    <glyph glyph-name="colon" unicode=":" horiz-adv-x="569" 
d="M41 315h324l-68 -315h-324zM449 725h-324l68 315h323z" />
    <glyph glyph-name="semicolon" unicode=";" horiz-adv-x="569" 
d="M39 315h323q-12 -49 -27 -128q-54 -284 -106 -359q-77 -113 -179 -145q-65 -20 -148 -25l30 145q86 13 125 59t58 138h-142zM193 1040h323l-67 -315h-324z" />
    <glyph glyph-name="less" unicode="&#x3c;" horiz-adv-x="1228" 
d="M1135 817l-752 -299l752 -299v-235l-1041 413v242l1041 414v-236z" />
    <glyph glyph-name="equal" unicode="=" horiz-adv-x="1228" 
d="M1133 627h-1035v219h1035v-219zM1133 188h-1035v220h1035v-220z" />
    <glyph glyph-name="greater" unicode="&#x3e;" horiz-adv-x="1228" 
d="M94 219l752 299l-752 299v236l1041 -414v-242l-1041 -413v235z" />
    <glyph glyph-name="question" unicode="?" horiz-adv-x="1175" 
d="M721 1497q190 0 318 -96t128 -283q1 -133 -75 -223t-209 -166q-105 -55 -163 -117t-71 -161h-270q27 186 98 270q72 84 240 172q145 86 145 205q0 78 -50 119t-140 41t-154 -72q-63 -72 -76 -180h-290q12 238 170 364t399 127zM319 315h324l-68 -315h-323z" />
    <glyph glyph-name="at" unicode="@" horiz-adv-x="1638" 
d="M596 668q0 -96 44 -147q44 -50 116 -50q104 0 178 98t74 211q0 74 -46 124t-112 50q-106 0 -180 -95t-74 -191zM1401 829q0 236 -157 370q-158 134 -406 134t-408 -171t-160 -436t169 -431t438 -166t438 168h172q-104 -160 -268 -246t-357 -86q-330 0 -559 220t-229 544
t228 546t534 222t517 -175q212 -175 212 -450q-1 -147 -57 -268q-56 -122 -136 -188t-157 -102q-153 -72 -237 -3q-40 33 -44 84h-4q-72 -119 -212 -119t-236 104t-95 247q0 205 126 363t321 159q74 0 140 -35t99 -108l33 110h168l-129 -528q-41 -135 18 -135q90 1 164 109
t74 267z" />
    <glyph glyph-name="A" unicode="A" horiz-adv-x="1402" 
d="M494 565h391l-72 582h-4zM707 1462h329l244 -1462h-319l-48 326h-546l-185 -326h-340z" />
    <glyph glyph-name="B" unicode="B" horiz-adv-x="1478" 
d="M758 250q116 0 184 61t68 171t-78 140q-77 29 -176 29h-316l-86 -401h404zM913 1462q240 0 358 -72t118 -270q0 -129 -75 -226t-200 -114v-4q102 -29 160 -108q57 -80 57 -189q0 -227 -163 -353t-396 -126h-780l307 1462h614zM850 870q92 0 154 50t63 143q0 150 -170 149
h-340l-72 -342h365z" />
    <glyph glyph-name="C" unicode="C" horiz-adv-x="1517" 
d="M1139 954q0 131 -71 202t-209 71q-138 1 -251 -97q-211 -182 -211 -518q0 -164 83 -270t249 -106q129 0 225 85t119 205h322q-96 -297 -260 -429t-410 -132q-309 0 -479 168t-170 479q0 238 95 439t279 323t436 123q252 0 416 -142t158 -401h-321z" />
    <glyph glyph-name="D" unicode="D" horiz-adv-x="1517" 
d="M829 1462q305 0 463 -148t158 -421q0 -397 -219 -645t-627 -248h-612l309 1462h528zM618 270q238 0 374 163t136 405q0 354 -319 354h-242l-196 -922h247z" />
    <glyph glyph-name="E" unicode="E" horiz-adv-x="1366" 
d="M299 1462h1116l-55 -270h-795l-65 -313h735l-53 -250h-736l-75 -359h807l-58 -270h-1128z" />
    <glyph glyph-name="F" unicode="F" horiz-adv-x="1214" 
d="M301 1462h1040l-59 -270h-717l-71 -338h626l-53 -250h-625l-129 -604h-321z" />
    <glyph glyph-name="G" unicode="G" horiz-adv-x="1554" 
d="M1098 150h-4q-135 -184 -369 -185q-309 0 -479 168t-170 479q0 238 95 439t279 323t440 123q256 0 430 -131t175 -387h-321q-12 248 -297 248q-156 1 -269 -97q-211 -182 -211 -518q0 -164 83 -270t252 -106t263 82t140 233h-338l51 240h620l-168 -791h-202v150z" />
    <glyph glyph-name="H" unicode="H" horiz-adv-x="1517" 
d="M301 1462h324l-119 -561h592l119 561h323l-309 -1462h-324l133 631h-591l-134 -631h-323z" />
    <glyph glyph-name="I" unicode="I" horiz-adv-x="606" 
d="M301 1462h324l-310 -1462h-323z" />
    <glyph glyph-name="J" unicode="J" horiz-adv-x="1138" 
d="M-39 319q0 84 27 226h293q-29 -127 -29 -181t46 -92q69 -56 183 -29q40 9 89 66q21 22 34 74q14 51 27 102l203 977h323l-217 -1046q-102 -451 -514 -451q-210 0 -338 87q-127 87 -127 267z" />
    <glyph glyph-name="K" unicode="K" horiz-adv-x="1478" 
d="M297 1462h321l-126 -612h4l663 612h426l-702 -602l448 -860h-362l-334 657l-223 -194l-97 -463h-323z" />
    <glyph glyph-name="L" unicode="L" horiz-adv-x="1175" 
d="M299 1462h324l-250 -1192h706l-57 -270h-1030z" />
    <glyph glyph-name="M" unicode="M" horiz-adv-x="1857" 
d="M301 1462h444l113 -1059h4l563 1059h449l-309 -1462h-301l266 1163h-4l-619 -1163h-245l-142 1163h-4l-219 -1163h-305z" />
    <glyph glyph-name="N" unicode="N" horiz-adv-x="1517" 
d="M301 1462h332l397 -1040h4l209 1040h295l-309 -1462h-322l-401 1026h-4l-209 -1026h-301z" />
    <glyph glyph-name="O" unicode="O" horiz-adv-x="1593" 
d="M397 605q0 -157 83 -263t241 -106q157 0 269 97q212 184 212 515q0 168 -79 273t-241 105t-274 -97q-211 -181 -211 -524zM76 612q0 238 95 439t279 323t424 123q302 0 476 -162t174 -465q0 -246 -91 -448t-275 -330q-184 -127 -433 -127q-309 0 -479 168t-170 479z" />
    <glyph glyph-name="P" unicode="P" horiz-adv-x="1366" 
d="M805 774q125 0 195 65t69 191q0 182 -227 182h-275l-90 -438h328zM883 1462q508 0 508 -426q0 -233 -166 -372t-404 -140h-397l-111 -524h-321l305 1462h586z" />
    <glyph glyph-name="Q" unicode="Q" horiz-adv-x="1593" 
d="M1202 868q0 148 -79 253t-241 105t-274 -96q-211 -182 -211 -518q0 -164 83 -270t249 -106q63 0 127 22l-115 129l172 141l129 -145q160 184 160 485zM725 -35q-309 0 -479 168t-170 479q0 238 95 439t279 323t424 123q302 0 476 -162t174 -465q0 -213 -73 -399
t-210 -313l156 -176l-172 -144l-172 197q-141 -70 -328 -70z" />
    <glyph glyph-name="R" unicode="R" horiz-adv-x="1478" 
d="M1249 424l-10 -254q0 -117 21 -170h-314q-14 61 -14 98l16 297q0 101 -54 139t-157 37h-303l-121 -571h-321l307 1462h698q436 10 437 -383q0 -149 -94 -261t-242 -132v-4q152 -49 151 -258zM780 801q141 0 237 58q95 58 95 170t-62 148t-176 35h-305l-86 -411h297z" />
    <glyph glyph-name="S" unicode="S" horiz-adv-x="1327" 
d="M909 422q0 61 -46 100q-46 38 -95 56t-76 26t-77 22t-76 23q-168 49 -269 136q-100 87 -100 257q0 117 50 207q92 166 319 222q100 26 211 26q244 0 396 -116t152 -355h-305q4 115 -67 168q-72 53 -186 53t-190 -44q-75 -44 -75 -138q0 -52 38 -87q38 -34 72 -48t51 -22
t53 -18q36 -9 49 -12q13 -4 47 -12t38 -8q195 -51 293 -139t98 -270q0 -125 -53 -223q-91 -168 -331 -233q-101 -28 -212 -28q-308 0 -458 128t-150 392h305q-8 -145 77 -207q86 -62 218 -62t216 52q84 53 83 154z" />
    <glyph glyph-name="T" unicode="T" horiz-adv-x="1251" 
d="M569 1192h-458l57 270h1221l-58 -270h-438l-250 -1192h-324z" />
    <glyph glyph-name="U" unicode="U" horiz-adv-x="1517" 
d="M653 -35q-153 0 -277 40t-211 141t-87 253q0 63 31 217l178 846h321l-178 -846q-31 -141 -31 -184q1 -74 63 -135t210 -61t221 56t108 180q14 46 31 124l182 866h322l-178 -850q-70 -334 -226 -490t-479 -157z" />
    <glyph glyph-name="V" unicode="V" horiz-adv-x="1290" 
d="M678 0h-363l-168 1462h322l96 -1097h4l555 1097h334z" />
    <glyph glyph-name="W" unicode="W" horiz-adv-x="1933" 
d="M1389 0h-320l-37 1044h-4l-455 -1044h-323l-100 1462h321l21 -1071h4l462 1071h308l37 -1067h4l446 1067h322z" />
    <glyph glyph-name="X" unicode="X" horiz-adv-x="1366" 
d="M522 770l-342 692h350l207 -483l375 483h381l-608 -706l362 -756h-354l-229 522l-418 -522h-389z" />
    <glyph glyph-name="Y" unicode="Y" horiz-adv-x="1327" 
d="M475 567l-350 895h330l219 -622l454 622h379l-712 -909l-113 -553h-324z" />
    <glyph glyph-name="Z" unicode="Z" horiz-adv-x="1327" 
d="M-33 266l977 926h-749l59 270h1155l-53 -258l-985 -934h825l-53 -270h-1231z" />
    <glyph glyph-name="bracketleft" unicode="[" horiz-adv-x="681" 
d="M317 1497h529l-49 -229h-256l-297 -1411h258l-49 -230h-529z" />
    <glyph glyph-name="backslash" unicode="\" horiz-adv-x="796" 
d="M801 -35h-234l-571 1532h233z" />
    <glyph glyph-name="bracketright" unicode="]" horiz-adv-x="681" 
d="M299 -373h-528l49 230h256l297 1411h-258l49 229h528z" />
    <glyph glyph-name="asciicircum" unicode="^" horiz-adv-x="1228" 
d="M477 1434h275l352 -789h-240l-250 563l-249 -563h-240z" />
    <glyph glyph-name="underscore" unicode="_" horiz-adv-x="1024" 
d="M0 -154h1024v-102h-1024v102z" />
    <glyph glyph-name="grave" unicode="`" 
d="M541 1206h-205l-287 291h311z" />
    <glyph glyph-name="a" unicode="a" horiz-adv-x="1175" 
d="M436 166q121 0 181 66t92 174l28 102q-66 -39 -245 -51q-98 -10 -156 -46t-60 -126q0 -57 46 -88t114 -31zM934 92q0 -58 10 -92h-291v104q-119 -133 -323 -133q-164 0 -254 80t-90 199q0 152 106 245t299 115q70 9 151 17t129 15t79 30q30 22 37 42t8 50q-1 72 -57 100
t-133 29q-77 0 -137 -40t-73 -116h-272q18 127 95 208t177 112q170 53 381 19q294 -46 289 -267q0 -76 -23 -178l-94 -426q-14 -55 -14 -113z" />
    <glyph glyph-name="b" unicode="b" horiz-adv-x="1251" 
d="M666 868q-106 0 -182 -76q-134 -138 -134 -378q0 -100 56 -162t158 -62q101 0 175 75q135 137 133 368q0 107 -50 171t-156 64zM1163 652q0 -389 -249 -581q-128 -99 -300 -100q-264 0 -331 195h-4l-35 -166h-269l308 1462h290l-108 -516h4q71 76 141 109t172 32
q193 1 287 -125t94 -310z" />
    <glyph glyph-name="c" unicode="c" horiz-adv-x="1138" 
d="M803 692q0 176 -195 176q-78 0 -138 -44t-93 -114q-64 -134 -66 -290q0 -102 48 -166t153 -64q174 0 236 197h290q-139 -416 -546 -416q-227 0 -350 113q-122 113 -122 342q0 281 161 471t437 190q207 0 339 -97t137 -298h-291z" />
    <glyph glyph-name="d" unicode="d" horiz-adv-x="1251" 
d="M424 -29q-190 0 -297 112q-106 112 -107 306q0 275 141 479q69 100 183 160t232 59q120 0 203 -44t116 -125h4l117 544h291l-310 -1462h-280l28 131l-4 4q-94 -164 -317 -164zM838 642q0 102 -54 164t-156 62q-103 0 -178 -74q-139 -136 -139 -368q1 -100 55 -168
t154 -68t176 76t109 175t33 201z" />
    <glyph glyph-name="e" unicode="e" horiz-adv-x="1175" 
d="M299 424v-27q0 -96 59 -151t174 -56q52 0 98 25t68 51t52 70h290q-72 -184 -199 -275q-128 -90 -347 -90t-347 120q-127 120 -127 343q0 266 162 460t422 193q227 0 361 -118q133 -119 133 -344q0 -78 -17 -166h-780q-2 -14 -2 -35zM817 643q0 225 -196 225
q-209 0 -289 -225h485z" />
    <glyph glyph-name="f" unicode="f" horiz-adv-x="720" 
d="M660 1475q100 0 202 -17l-45 -209q-93 6 -109 6q-98 0 -122 -68q-16 -45 -24 -78q-7 -34 -11 -50h207l-41 -195h-209l-182 -864h-291l182 864h-172l41 195h174q25 117 46 181q56 166 182 210q72 25 172 25z" />
    <glyph glyph-name="g" unicode="g" horiz-adv-x="1251" 
d="M623 868q-135 0 -216 -127t-81 -249t49 -190q49 -67 147 -66q143 0 227 125q83 126 82 278q0 105 -53 167t-155 62zM-39 -55h291q-4 -76 53 -114t123 -38q114 0 181 69q28 28 54 84t74 216l-4 4q-113 -150 -296 -150t-293 118t-109 315q0 251 147 445t388 194t323 -191h4
l33 162h278l-211 -1004q-53 -241 -188 -349t-393 -108t-384 145q-71 81 -71 202z" />
    <glyph glyph-name="h" unicode="h" horiz-adv-x="1251" 
d="M817 1087q309 0 309 -284q0 -34 -14 -103t-16 -79l-131 -621h-291l129 621q18 98 18 136q0 37 -43 69t-96 32q-123 0 -196 -84t-101 -211l-119 -563h-291l306 1462h290l-108 -526h4q43 59 132 105t218 46z" />
    <glyph glyph-name="i" unicode="i" 
d="M201 1059h293l-226 -1059h-293zM526 1223h-293l54 239h293z" />
    <glyph glyph-name="j" unicode="j" 
d="M-122 -133q50 0 72 51t32 91l12 48l211 1002h291l-232 -1098q-39 -178 -122 -256t-271 -78q-27 0 -75 5t-66 6l49 233q71 -4 99 -4zM526 1223h-293l54 239h293z" />
    <glyph glyph-name="k" unicode="k" horiz-adv-x="1138" 
d="M283 1462h290l-167 -794l4 -4l417 395h359l-475 -402l272 -657h-319l-175 473l-151 -129l-72 -344h-291z" />
    <glyph glyph-name="l" unicode="l" 
d="M287 1462h291l-312 -1462h-291z" />
    <glyph glyph-name="m" unicode="m" horiz-adv-x="1857" 
d="M806 1087q232 0 267 -184q53 82 155 133t220 51q119 1 212 -69t93 -199q0 -61 -31 -196l-131 -623h-291l140 670q8 42 8 82t-36 73t-91 33q-106 0 -178 -89t-94 -202l-119 -567h-293l139 670q8 42 8 82t-35 73q-36 33 -92 33q-106 0 -178 -89t-94 -202l-119 -567h-291
l222 1059h278l-33 -150h4q128 178 360 178z" />
    <glyph glyph-name="n" unicode="n" horiz-adv-x="1251" 
d="M817 1087q309 0 309 -284q0 -34 -14 -103t-16 -79l-131 -621h-291l129 621q18 98 18 136q0 37 -43 69t-96 32q-123 0 -196 -84t-101 -211l-119 -563h-291l222 1059h278l-33 -148h4q141 176 371 176z" />
    <glyph glyph-name="o" unicode="o" horiz-adv-x="1214" 
d="M20 428q0 279 167 469t442 190q225 1 359 -113t134 -335q0 -287 -168 -477t-448 -191q-226 0 -356 117t-130 340zM311 428q-1 -100 55 -169t156 -69t174 76q137 141 136 372q-1 230 -214 230q-145 0 -226 -141t-81 -299z" />
    <glyph glyph-name="p" unicode="p" horiz-adv-x="1251" 
d="M660 868q-100 0 -177 -75q-141 -141 -141 -373q0 -106 53 -168t157 -62t178 74q75 74 107 171q31 97 31 197t-54 168t-154 68zM1159 670q0 -272 -140 -480q-69 -100 -181 -159t-232 -59t-204 42q-83 43 -115 127h-6l-111 -514h-291l305 1432h281l-29 -131l4 -4
q94 164 318 163q190 0 296 -111q105 -112 105 -306z" />
    <glyph glyph-name="q" unicode="q" horiz-adv-x="1251" 
d="M409 -29q-194 0 -291 126q-98 127 -98 311q-1 386 249 580q128 99 300 99q264 0 332 -194h4l35 166h268l-301 -1432h-291l97 457h-4q-106 -113 -300 -113zM842 644q0 100 -56 162t-159 62q-102 0 -178 -74q-138 -135 -138 -368q0 -106 51 -171q50 -65 156 -65t181 76
t109 177t34 201z" />
    <glyph glyph-name="r" unicode="r" horiz-adv-x="796" 
d="M799 1087q45 0 90 -6l-60 -282q-92 18 -122 18q-154 0 -231 -94t-111 -254l-99 -469h-291l222 1059h276l-43 -191l4 -4q48 109 146 166t219 57z" />
    <glyph glyph-name="s" unicode="s" horiz-adv-x="1062" 
d="M548 893q-169 0 -169 -105q0 -36 30 -60t103 -46l145 -47q131 -41 205 -111t74 -194t-77 -207q-139 -152 -410 -152q-270 0 -396 135q-72 78 -71 195v43h270v-35q0 -67 63 -105t143 -38t133 31q54 31 54 89t-24 81q-25 23 -80 43l-224 71q-121 41 -175 97t-54 174
q0 116 77 196q136 141 392 139q187 0 304 -66q134 -74 130 -271h-270q-4 143 -173 143z" />
    <glyph glyph-name="t" unicode="t" horiz-adv-x="757" 
d="M410 280q0 -26 17 -44t35 -22t58 -3q41 0 92 6l-49 -225q-99 -10 -201 -10t-182 49t-76 166q0 33 15 100l119 567h-191l45 195h187l65 321h291l-66 -321h209l-45 -195h-207l-108 -526q-8 -32 -8 -58z" />
    <glyph glyph-name="u" unicode="u" horiz-adv-x="1251" 
d="M358 -29q-309 0 -309 285q0 72 31 182l131 621h291l-129 -621q-18 -55 -19 -129q0 -45 43 -77t97 -31q124 0 196 84t101 211l118 563h291l-221 -1059h-279l33 147h-4q-141 -176 -371 -176z" />
    <glyph glyph-name="v" unicode="v" horiz-adv-x="1062" 
d="M532 0h-331l-140 1059h299l66 -754h4l375 754h307z" />
    <glyph glyph-name="w" unicode="w" horiz-adv-x="1669" 
d="M1155 0h-303l-37 743h-4l-328 -743h-305l-117 1059h297l41 -746h4l326 746h295l33 -740h4l340 740h307z" />
    <glyph glyph-name="x" unicode="x" horiz-adv-x="1062" 
d="M647 551l268 -551h-307l-153 348l-283 -348h-330l492 567l-240 492h312l116 -305l240 305h325z" />
    <glyph glyph-name="y" unicode="y" horiz-adv-x="1062" 
d="M27 -373q-29 0 -82 5t-74 6l49 241l119 -12q47 0 83 16q36 15 49 31t34 52q20 36 26 44l-188 1049h299l92 -758h4l367 758h307l-674 -1209q-74 -133 -160 -178t-251 -45z" />
    <glyph glyph-name="z" unicode="z" horiz-adv-x="1024" 
d="M-59 215l663 625h-510l47 219h889l-45 -215l-666 -625h584l-47 -219h-960z" />
    <glyph glyph-name="braceleft" unicode="{" horiz-adv-x="681" 
d="M684 1268q-115 0 -141 -150l-66 -311q-20 -91 -71 -149q-50 -58 -94 -73t-89 -20v-6q55 -6 109 -45t53 -117q0 -31 -6 -63l-68 -328q-8 -33 -8 -78q0 -72 86 -71h111l-47 -230h-260q-72 1 -137 59t-64 160q0 27 6 58l84 399q4 29 4 33q0 68 -51 102t-107 35l37 178
q65 0 137 46t91 139l79 385q27 127 126 201t184 75h260l-47 -229h-111z" />
    <glyph glyph-name="bar" unicode="|" horiz-adv-x="454" 
d="M119 1610h219v-2048h-219v2048z" />
    <glyph glyph-name="braceright" unicode="}" horiz-adv-x="681" 
d="M-68 -143q115 0 142 149l65 311q39 207 254 242v6q-57 6 -109 44t-53 118q0 31 7 64l67 327q8 33 8 78q0 72 -86 72h-110l47 229h260q72 0 136 -58t65 -161q0 -27 -7 -57l-83 -400q-4 -29 -5 -33q0 -68 52 -102t106 -35l-37 -178q-65 0 -137 -46t-90 -138l-80 -385
q-27 -127 -126 -202t-183 -75h-260l47 230h110z" />
    <glyph glyph-name="asciitilde" unicode="~" horiz-adv-x="1228" 
d="M833 338q-89 0 -208 70t-229 70t-177 -148l-82 190q86 176 256 176q90 0 272 -85q125 -54 164 -54t76 27t52 47t53 74l82 -191q-54 -84 -112 -130t-147 -46z" />
    <glyph glyph-name="Euro" horiz-adv-x="1138" 
d="M834 1233q-217 0 -328 -301h500l-72 -146h-465l-10 -92h436l-72 -145h-364q25 -338 278 -338q139 0 338 137l-53 -303q-168 -78 -326 -78q-252 0 -379 159t-145 423h-154l72 145h84l12 92h-116l71 146h76q68 238 215 383q170 164 384 164t382 -131l-125 -232
q-115 117 -239 117z" />
    <glyph glyph-name="Euro" unicode="&#x20ac;" horiz-adv-x="1138" 
d="M834 1233q-217 0 -328 -301h500l-72 -146h-465l-10 -92h436l-72 -145h-364q25 -338 278 -338q139 0 338 137l-53 -303q-168 -78 -326 -78q-252 0 -379 159t-145 423h-154l72 145h84l12 92h-116l71 146h76q68 238 215 383q170 164 384 164t382 -131l-125 -232
q-115 117 -239 117z" />
    <glyph glyph-name="uni00A0" unicode="&#xa0;" horiz-adv-x="569" 
 />
    <glyph glyph-name="exclamdown" unicode="&#xa1;" horiz-adv-x="606" 
d="M10 23l215 626h144l-52 -626l-84 -398h-309zM483 772h-323l67 315h324z" />
    <glyph glyph-name="cent" unicode="&#xa2;" horiz-adv-x="1138" 
d="M313 420q0 -182 129 -217l140 665q-92 -10 -156 -89q-114 -141 -113 -359zM621 1087h8l37 177h100l-39 -185q164 -20 264 -117t105 -270h-291q0 143 -123 168l-139 -670q150 18 207 197h290q-61 -215 -191 -315t-349 -101h-4l-45 -211h-101l45 220q-373 47 -372 446
q0 281 160 471q161 190 438 190z" />
    <glyph glyph-name="sterling" unicode="&#xa3;" horiz-adv-x="1138" 
d="M152 1038q0 213 157 336q159 123 387 123t353 -132t114 -390h-280q10 283 -195 282q-109 1 -170 -65t-61 -176t37 -205h288l-34 -174h-234q2 -10 2 -29v-28q0 -115 -48 -196t-146 -151l4 -4q74 33 146 33t165 -24q92 -24 143 -23q96 0 197 74l84 -219
q-162 -104 -340 -105q-61 0 -205 39t-211 39q-115 0 -242 -78l-86 199q80 59 125 97t89 109q65 104 36 267h-198l37 174h131q-45 119 -45 227z" />
    <glyph glyph-name="currency" unicode="&#xa4;" horiz-adv-x="1138" 
d="M1075 722q0 -188 -94 -302l113 -115l-113 -112l-117 118q-106 -102 -294 -102t-300 100l-114 -119l-115 115l117 119q-98 116 -98 302t98 284l-117 118l117 117l116 -115q111 94 292 94t288 -91l119 116l125 -125l-115 -112q92 -102 92 -290zM570 1006q-116 0 -184 -85
t-67 -205q0 -120 68 -204q67 -84 183 -84t181 86t65 203t-65 203t-181 86z" />
    <glyph glyph-name="yen" unicode="&#xa5;" horiz-adv-x="1138" 
d="M326 283h-318l41 194h318l18 92l-16 62h-289l41 194h192l-180 637h338l121 -637h4l387 637h338l-444 -637h190l-41 -194h-285l-43 -62l-24 -92h321l-41 -194h-317l-59 -283h-312z" />
    <glyph glyph-name="brokenbar" unicode="&#xa6;" horiz-adv-x="454" 
d="M119 330h219v-512h-219v512zM338 842h-219v512h219v-512z" />
    <glyph glyph-name="section" unicode="&#xa7;" horiz-adv-x="1214" 
d="M456 827q-56 0 -97 -37q-40 -38 -40 -78t8 -72q8 -31 53 -68q46 -37 56 -48l148 -121q70 -70 97 -78q27 -9 44 -10q57 0 99 37t42 103t-58 117q-58 52 -87 75l-129 109q-42 35 -52 44q-28 27 -84 27zM629 -10q0 96 -178 213l-207 149q-184 127 -185 303q0 129 81 217
t212 105q-39 51 -52 85t-13 87q0 162 142 255q143 93 325 91t300 -101t95 -286h-260q4 76 -36 123t-114 47q-73 0 -117 -37t-44 -93t52 -112t107 -88l189 -135q201 -152 200 -319q0 -127 -80 -210t-188 -112q61 -70 62 -178q0 -170 -138 -268t-334 -98q-194 0 -317 104
q-123 106 -115 303h260q-6 -80 41 -134q47 -55 127 -55t133 34q52 34 52 110z" />
    <glyph glyph-name="dieresis" unicode="&#xa8;" 
d="M485 1464h269l-49 -239h-269zM84 1464h268l-49 -239h-268z" />
    <glyph glyph-name="copyright" unicode="&#xa9;" horiz-adv-x="1638" 
d="M33 731q0 225 110 404q111 178 289 270t387 92t387 -92t289 -270t111 -404q0 -338 -232 -552t-555 -214q-324 0 -555 214t-231 552zM242 731q0 -260 167 -431t409 -171t411 171q168 171 168 431t-168 431t-411 171q-244 0 -410 -171t-166 -431zM848 281q-197 0 -319 130
q-121 129 -121 327t117 327q118 129 319 129q144 0 248 -83t122 -234h-159q-15 73 -73 113t-138 40q-115 0 -177 -80q-63 -80 -63 -207t68 -213t165 -86t152 43t66 117h166q-25 -150 -128 -236t-245 -87z" />
    <glyph glyph-name="ordfeminine" unicode="&#xaa;" horiz-adv-x="704" 
d="M268 979q0 -76 97 -78q55 0 94 24q39 25 54 51t30 66l16 56q-37 -16 -129 -28t-127 -30q-35 -20 -35 -61zM488 1462q306 0 307 -178q0 -39 -15 -106l-61 -256q-10 -36 -10 -70t8 -66h-217v64q-74 -82 -197 -82t-183 48t-61 120q0 213 265 244q28 4 76 8q149 12 172 38
q14 14 14 42t-35 44t-72 17q-115 0 -135 -82h-194q32 215 338 215z" />
    <glyph glyph-name="guillemotleft" unicode="&#xab;" horiz-adv-x="948" 
d="M444 446l58 267l370 235l-53 -252l-225 -139l158 -174l-45 -219zM43 446l57 267l371 235l-53 -252l-225 -139l157 -174l-45 -219z" />
    <glyph glyph-name="logicalnot" unicode="&#xac;" horiz-adv-x="1228" 
d="M1130 203h-219v409h-813v219h1032v-628z" />
    <glyph glyph-name="uni00AD" unicode="&#xad;" horiz-adv-x="833" 
d="M109 684h616l-53 -250h-617z" />
    <glyph glyph-name="registered" unicode="&#xae;" horiz-adv-x="1638" 
d="M33 732q0 339 231 552t555 213t555 -213q232 -213 232 -552t-232 -553t-555 -214q-324 0 -555 214t-231 553zM818 1333q-244 0 -410 -171t-166 -430t167 -431t409 -172t411 172q168 172 168 431t-168 430t-411 171zM514 1163h324q168 0 252 -59t84 -195q0 -211 -226 -229
l230 -375h-179l-208 367h-103v-367h-174v858zM688 805h148q80 -1 122 23t41 96q0 106 -172 106h-139v-225z" />
    <glyph glyph-name="macron" unicode="&#xaf;" 
d="M100 1421h625l-29 -153h-624z" />
    <glyph glyph-name="degree" unicode="&#xb0;" horiz-adv-x="819" 
d="M168 1159q0 127 88 215t215 88t215 -88t88 -215t-88 -215t-215 -88t-215 88t-88 215zM301 1159q0 -74 51 -127t119 -53t119 53t51 127t-51 127t-119 53t-119 -53t-51 -127z" />
    <glyph glyph-name="plusminus" unicode="&#xb1;" horiz-adv-x="1228" 
d="M98 768h408v268h219v-268h408v-219h-408v-268h-219v268h-408v219zM98 219h1035v-219h-1035v219z" />
    <glyph glyph-name="twosuperior" unicode="&#xb2;" horiz-adv-x="802" 
d="M508 1462q342 0 342 -270q0 -144 -179 -256q-69 -44 -183 -102t-169 -111h445l-37 -164h-694q12 164 107 249q95 86 235 152q139 66 203 115q63 49 63 107t-39 87q-38 29 -104 29t-111 -51t-49 -123h-209q13 166 115 252t264 86z" />
    <glyph glyph-name="threesuperior" unicode="&#xb3;" horiz-adv-x="802" 
d="M455 1094q176 0 176 104q0 49 -37 75q-38 25 -102 25q-127 -1 -162 -141h-197q21 153 117 229t246 76t240 -56q91 -56 91 -181q0 -76 -48 -129t-128 -70v-4q135 -34 135 -182t-110 -224t-289 -75q-340 0 -340 286v39h197v-30q0 -60 39 -96t111 -36t123 40q50 40 50 98
t-36 83q-36 26 -91 25h-69l26 144h58z" />
    <glyph glyph-name="acute" unicode="&#xb4;" 
d="M479 1206h-205l181 291h311z" />
    <glyph glyph-name="mu" unicode="&#xb5;" horiz-adv-x="1251" 
d="M358 -29q-39 0 -90 11l-73 -355h-291l307 1432h291l-129 -621q-18 -55 -19 -129q0 -45 43 -77t97 -31q124 0 196 84t101 211l118 563h291l-221 -1059h-279l33 147h-4q-141 -176 -371 -176z" />
    <glyph glyph-name="paragraph" unicode="&#xb6;" horiz-adv-x="1228" 
d="M721 1462h577l-378 -1802h-197l346 1638h-227l-346 -1638h-197l225 1063q-207 0 -304 98t-64 264q80 377 565 377z" />
    <glyph glyph-name="periodcentered" unicode="&#xb7;" horiz-adv-x="569" 
d="M88 589q0 71 52 122t122 51t121 -51t51 -121t-51 -122t-121 -52t-122 51t-52 122z" />
    <glyph glyph-name="cedilla" unicode="&#xb8;" 
d="M238 -338q84 0 84 67t-82 66q-45 0 -82 -14l-43 49l121 170h100l-80 -109l6 -4q108 41 201 -22q55 -37 55 -107q0 -203 -239 -202q-131 0 -254 45l43 98q86 -37 170 -37z" />
    <glyph glyph-name="onesuperior" unicode="&#xb9;" horiz-adv-x="802" 
d="M512 559h-213l127 561h-225l35 154q110 4 180 40t121 130h174z" />
    <glyph glyph-name="ordmasculine" unicode="&#xba;" horiz-adv-x="729" 
d="M76 1053q0 178 109 294q110 116 300 115q334 0 334 -282q1 -182 -109 -297t-304 -115q-330 0 -330 285zM285 1072q0 -70 36 -110t93 -40q92 0 144 84t52 158q0 146 -133 145q-90 0 -141 -83q-51 -84 -51 -154z" />
    <glyph glyph-name="guillemotright" unicode="&#xbb;" horiz-adv-x="948" 
d="M440 666l-57 -267l-371 -235l54 252l225 139l-158 174l45 219zM842 666l-58 -267l-370 -235l53 252l225 139l-157 174l45 219z" />
    <glyph glyph-name="onequarter" unicode="&#xbc;" horiz-adv-x="1820" 
d="M1266 1479h174l-844 -1524h-178zM551 559h-213l127 561h-225l34 154q109 4 180 40t121 130h175zM1339 182h-426l41 178l535 500h217l-119 -514h121l-33 -164h-127l-41 -182h-209zM1378 346l70 301l-4 4l-320 -305h254z" />
    <glyph glyph-name="onehalf" unicode="&#xbd;" horiz-adv-x="1820" 
d="M1262 1479h174l-844 -1524h-178zM467 1120h-225l34 154q109 4 180 40t122 130h174l-199 -885h-213zM1512 903q341 0 341 -270q0 -145 -179 -257q-69 -44 -183 -101q-114 -58 -168 -111h444l-36 -164h-695q12 163 109 250t235 152t201 114q63 48 63 106t-38 88
q-39 30 -105 30q-67 0 -111 -52q-44 -51 -49 -123h-208q14 166 115 252t264 86z" />
    <glyph glyph-name="threequarters" unicode="&#xbe;" horiz-adv-x="1820" 
d="M1266 1479h174l-844 -1524h-178zM410 1094q176 0 176 104q0 49 -37 75q-37 25 -101 25q-127 -1 -163 -141h-197q20 153 116 229t246 76t241 -56t91 -181q0 -76 -48 -129t-128 -70v-4q135 -34 135 -182q-1 -148 -111 -224t-288 -75q-340 0 -340 286v39h197v-30
q0 -60 39 -96q40 -36 112 -36t122 40t50 98t-36 83q-36 26 -91 25h-69l26 144h58zM1339 182h-426l41 178l535 500h217l-119 -514h121l-33 -164h-127l-41 -182h-209zM1378 346l70 301l-4 4l-320 -305h254z" />
    <glyph glyph-name="questiondown" unicode="&#xbf;" horiz-adv-x="1175" 
d="M383 -401q-190 0 -318 96t-128 282q0 133 75 224q76 89 197 157t178 127t68 160h270q-27 -186 -99 -270t-239 -172q-145 -86 -145 -205q0 -78 50 -119t140 -41t154 72q63 72 76 180h290q-12 -238 -170 -364t-399 -127zM784 772h-323l67 315h324z" />
    <glyph glyph-name="Agrave" unicode="&#xc0;" horiz-adv-x="1402" 
d="M1020 1595h-205l-287 291h312zM494 565h391l-72 582h-4zM707 1462h329l244 -1462h-319l-48 326h-546l-185 -326h-340z" />
    <glyph glyph-name="Aacute" unicode="&#xc1;" horiz-adv-x="1402" 
d="M944 1595h-205l181 291h311zM494 565h391l-72 582h-4zM707 1462h329l244 -1462h-319l-48 326h-546l-185 -326h-340z" />
    <glyph glyph-name="Acircumflex" unicode="&#xc2;" horiz-adv-x="1402" 
d="M811 1886h258l170 -291h-205l-102 166l-178 -166h-224zM494 565h391l-72 582h-4zM707 1462h329l244 -1462h-319l-48 326h-546l-185 -326h-340z" />
    <glyph glyph-name="Atilde" unicode="&#xc3;" horiz-adv-x="1402" 
d="M704 1702q-44 0 -60 -20q-17 -20 -30 -66h-125q25 114 81 182t178 68q39 0 131 -35q86 -37 133 -37q46 0 68 20t20 52h141l-18 -62q-5 -20 -25 -59q-55 -111 -172 -112q-73 -1 -182 34q-96 35 -140 35zM494 565h391l-72 582h-4zM707 1462h329l244 -1462h-319l-48 326
h-546l-185 -326h-340z" />
    <glyph glyph-name="Adieresis" unicode="&#xc4;" horiz-adv-x="1402" 
d="M1001 1853h269l-49 -239h-269zM600 1853h268l-49 -239h-268zM494 565h391l-72 582h-4zM707 1462h329l244 -1462h-319l-48 326h-546l-185 -326h-340z" />
    <glyph glyph-name="Aring" unicode="&#xc5;" horiz-adv-x="1402" 
d="M764 1774q0 -62 34 -100t93 -38t94 38t35 100t-35 99q-35 38 -94 38t-93 -38t-34 -99zM641 1772q0 106 72 177t177 71t178 -72q73 -70 73 -176t-70 -175q-69 -67 -181 -67t-180 68t-69 174zM494 565h391l-72 582h-4zM707 1462h329l244 -1462h-319l-48 326h-546l-185 -326
h-340z" />
    <glyph glyph-name="AE" unicode="&#xc6;" horiz-adv-x="2009" 
d="M1036 1192h-41l-448 -637h352zM840 1462h1251l-57 -270h-674l-68 -313h631l-53 -250h-631l-78 -359h694l-57 -270h-1018l68 315h-451l-223 -315h-360z" />
    <glyph glyph-name="Ccedilla" unicode="&#xc7;" horiz-adv-x="1517" 
d="M573 -338q84 0 84 67t-82 66q-45 0 -81 -14l-43 49l106 150q-193 35 -311 153q-170 170 -170 479q0 238 95 439t279 323t436 123q252 0 416 -142t158 -401h-321q0 131 -71 202t-209 71q-138 1 -251 -97q-211 -182 -211 -518q0 -164 83 -270t249 -106q129 0 225 85
t119 205h322q-96 -297 -260 -429t-410 -132q-25 0 -78 4l-55 -78l6 -4q108 41 201 -22q55 -37 55 -107q0 -203 -240 -202q-131 0 -254 45l43 98q86 -37 170 -37z" />
    <glyph glyph-name="Egrave" unicode="&#xc8;" horiz-adv-x="1366" 
d="M1044 1595h-204l-287 291h311zM299 1462h1116l-55 -270h-795l-65 -313h735l-53 -250h-736l-75 -359h807l-58 -270h-1128z" />
    <glyph glyph-name="Eacute" unicode="&#xc9;" horiz-adv-x="1366" 
d="M965 1595h-205l180 291h311zM299 1462h1116l-55 -270h-795l-65 -313h735l-53 -250h-736l-75 -359h807l-58 -270h-1128z" />
    <glyph glyph-name="Ecircumflex" unicode="&#xca;" horiz-adv-x="1366" 
d="M791 1886h258l170 -291h-205l-103 166l-178 -166h-223zM299 1462h1116l-55 -270h-795l-65 -313h735l-53 -250h-736l-75 -359h807l-58 -270h-1128z" />
    <glyph glyph-name="Edieresis" unicode="&#xcb;" horiz-adv-x="1366" 
d="M981 1853h268l-49 -239h-268zM580 1853h268l-49 -239h-269zM299 1462h1116l-55 -270h-795l-65 -313h735l-53 -250h-736l-75 -359h807l-58 -270h-1128z" />
    <glyph glyph-name="Igrave" unicode="&#xcc;" horiz-adv-x="606" 
d="M631 1595h-205l-287 291h312zM301 1462h324l-310 -1462h-323z" />
    <glyph glyph-name="Iacute" unicode="&#xcd;" horiz-adv-x="606" 
d="M520 1595h-205l181 291h311zM301 1462h324l-310 -1462h-323z" />
    <glyph glyph-name="Icircumflex" unicode="&#xce;" horiz-adv-x="606" 
d="M410 1886h258l170 -291h-205l-103 166l-178 -166h-223zM301 1462h324l-310 -1462h-323z" />
    <glyph glyph-name="Idieresis" unicode="&#xcf;" horiz-adv-x="606" 
d="M604 1853h268l-49 -239h-268zM203 1853h268l-49 -239h-268zM301 1462h324l-310 -1462h-323z" />
    <glyph glyph-name="Eth" unicode="&#xd0;" horiz-adv-x="1517" 
d="M829 1462q305 0 463 -148t158 -421q0 -397 -219 -645t-627 -248h-612l133 635h-168l51 239h170l123 588h528zM618 270q238 0 374 163t136 405q0 354 -319 354h-242l-67 -318h344l-51 -239h-347l-75 -365h247z" />
    <glyph glyph-name="Ntilde" unicode="&#xd1;" horiz-adv-x="1517" 
d="M805 1702q-43 0 -61 -20t-29 -66h-125q25 114 81 182t177 68q39 0 131 -35q86 -37 133 -37t69 20t19 52h141l-18 -62q-5 -20 -25 -59q-55 -111 -172 -112q-73 -1 -182 34q-96 35 -139 35zM301 1462h332l397 -1040h4l209 1040h295l-309 -1462h-322l-401 1026h-4
l-209 -1026h-301z" />
    <glyph glyph-name="Ograve" unicode="&#xd2;" horiz-adv-x="1593" 
d="M1038 1595h-204l-287 291h311zM397 605q0 -157 83 -263t241 -106q157 0 269 97q212 184 212 515q0 168 -79 273t-241 105t-274 -97q-211 -181 -211 -524zM76 612q0 238 95 439t279 323t424 123q302 0 476 -162t174 -465q0 -246 -91 -448t-275 -330q-184 -127 -433 -127
q-309 0 -479 168t-170 479z" />
    <glyph glyph-name="Oacute" unicode="&#xd3;" horiz-adv-x="1593" 
d="M1028 1595h-205l181 291h311zM397 605q0 -157 83 -263t241 -106q157 0 269 97q212 184 212 515q0 168 -79 273t-241 105t-274 -97q-211 -181 -211 -524zM76 612q0 238 95 439t279 323t424 123q302 0 476 -162t174 -465q0 -246 -91 -448t-275 -330q-184 -127 -433 -127
q-309 0 -479 168t-170 479z" />
    <glyph glyph-name="Ocircumflex" unicode="&#xd4;" horiz-adv-x="1593" 
d="M868 1886h258l170 -291h-204l-103 166l-178 -166h-223zM397 605q0 -157 83 -263t241 -106q157 0 269 97q212 184 212 515q0 168 -79 273t-241 105t-274 -97q-211 -181 -211 -524zM76 612q0 238 95 439t279 323t424 123q302 0 476 -162t174 -465q0 -246 -91 -448
t-275 -330q-184 -127 -433 -127q-309 0 -479 168t-170 479z" />
    <glyph glyph-name="Otilde" unicode="&#xd5;" horiz-adv-x="1593" 
d="M790 1702q-44 0 -60 -20q-17 -20 -30 -66h-125q25 114 81 182t178 68q39 0 131 -35q86 -37 133 -37q46 0 68 20t20 52h141l-18 -62q-5 -20 -25 -59q-55 -111 -172 -112q-73 -1 -182 34q-96 35 -140 35zM397 605q0 -157 83 -263t241 -106q157 0 269 97q212 184 212 515
q0 168 -79 273t-241 105t-274 -97q-211 -181 -211 -524zM76 612q0 238 95 439t279 323t424 123q302 0 476 -162t174 -465q0 -246 -91 -448t-275 -330q-184 -127 -433 -127q-309 0 -479 168t-170 479z" />
    <glyph glyph-name="Odieresis" unicode="&#xd6;" horiz-adv-x="1593" 
d="M1051 1853h268l-49 -239h-269zM649 1853h269l-50 -239h-268zM397 605q0 -157 83 -263t241 -106q157 0 269 97q212 184 212 515q0 168 -79 273t-241 105t-274 -97q-211 -181 -211 -524zM76 612q0 238 95 439t279 323t424 123q302 0 476 -162t174 -465q0 -246 -91 -448
t-275 -330q-184 -127 -433 -127q-309 0 -479 168t-170 479z" />
    <glyph glyph-name="multiply" unicode="&#xd7;" horiz-adv-x="1228" 
d="M131 190l330 328l-326 328l156 155l325 -327l328 327l156 -155l-330 -328l330 -328l-156 -155l-328 330l-329 -330z" />
    <glyph glyph-name="Oslash" unicode="&#xd8;" horiz-adv-x="1593" 
d="M880 1227q-160 1 -272 -97q-211 -182 -211 -518q0 -80 23 -153l706 657q-86 111 -246 111zM1202 817q0 117 -20 184l-705 -653q86 -112 244 -112q157 0 269 97t162 232t50 252zM1524 854q0 -230 -91 -432t-275 -330q-184 -127 -433 -127q-309 0 -475 170l-207 -192
l-82 90l211 196q-96 153 -96 387t95 435t279 323t424 123q311 0 480 -168l202 189l84 -93l-208 -192q92 -149 92 -379z" />
    <glyph glyph-name="Ugrave" unicode="&#xd9;" horiz-adv-x="1517" 
d="M1030 1595h-205l-286 291h311zM653 -35q-153 0 -277 40t-211 141t-87 253q0 63 31 217l178 846h321l-178 -846q-31 -141 -31 -184q1 -74 63 -135t210 -61t221 56t108 180q14 46 31 124l182 866h322l-178 -850q-70 -334 -226 -490t-479 -157z" />
    <glyph glyph-name="Uacute" unicode="&#xda;" horiz-adv-x="1517" 
d="M1032 1595h-205l181 291h311zM653 -35q-153 0 -277 40t-211 141t-87 253q0 63 31 217l178 846h321l-178 -846q-31 -141 -31 -184q1 -74 63 -135t210 -61t221 56t108 180q14 46 31 124l182 866h322l-178 -850q-70 -334 -226 -490t-479 -157z" />
    <glyph glyph-name="Ucircumflex" unicode="&#xdb;" horiz-adv-x="1517" 
d="M844 1886h258l170 -291h-205l-102 166l-179 -166h-223zM653 -35q-153 0 -277 40t-211 141t-87 253q0 63 31 217l178 846h321l-178 -846q-31 -141 -31 -184q1 -74 63 -135t210 -61t221 56t108 180q14 46 31 124l182 866h322l-178 -850q-70 -334 -226 -490t-479 -157z" />
    <glyph glyph-name="Udieresis" unicode="&#xdc;" horiz-adv-x="1517" 
d="M1040 1853h269l-49 -239h-269zM639 1853h268l-49 -239h-268zM653 -35q-153 0 -277 40t-211 141t-87 253q0 63 31 217l178 846h321l-178 -846q-31 -141 -31 -184q1 -74 63 -135t210 -61t221 56t108 180q14 46 31 124l182 866h322l-178 -850q-70 -334 -226 -490t-479 -157z
" />
    <glyph glyph-name="Yacute" unicode="&#xdd;" horiz-adv-x="1327" 
d="M936 1595h-205l180 291h312zM475 567l-350 895h330l219 -622l454 622h379l-712 -909l-113 -553h-324z" />
    <glyph glyph-name="Thorn" unicode="&#xde;" horiz-adv-x="1366" 
d="M766 578q125 0 195 63t69 190q0 182 -227 183h-277l-90 -436h330zM844 1264q508 0 508 -426q0 -230 -166 -370t-404 -140h-399l-70 -328h-321l305 1462h321l-40 -198h266z" />
    <glyph glyph-name="germandbls" unicode="&#xdf;" horiz-adv-x="1214" 
d="M715 1497q248 0 371 -147q69 -82 69 -208t-78 -214t-207 -119v-4q226 -53 226 -296t-164 -390t-404 -148q-84 0 -147 17l47 227q61 -4 90 -4q123 0 205 84t82 207q0 211 -227 207h-41l38 184h46q244 0 243 223q0 62 -45 102t-106 40q-124 -1 -166 -70t-68 -178
l-213 -1010h-291l226 1067q86 430 514 430z" />
    <glyph glyph-name="agrave" unicode="&#xe0;" horiz-adv-x="1175" 
d="M887 1206h-205l-287 291h312zM436 166q121 0 181 66t92 174l28 102q-66 -39 -245 -51q-98 -10 -156 -46t-60 -126q0 -57 46 -88t114 -31zM934 92q0 -58 10 -92h-291v104q-119 -133 -323 -133q-164 0 -254 80t-90 199q0 152 106 245t299 115q70 9 151 17t129 15t79 30
q30 22 37 42t8 50q-1 72 -57 100t-133 29q-77 0 -137 -40t-73 -116h-272q18 127 95 208t177 112q170 53 381 19q294 -46 289 -267q0 -76 -23 -178l-94 -426q-14 -55 -14 -113z" />
    <glyph glyph-name="aacute" unicode="&#xe1;" horiz-adv-x="1175" 
d="M762 1206h-205l180 291h312zM436 166q121 0 181 66t92 174l28 102q-66 -39 -245 -51q-98 -10 -156 -46t-60 -126q0 -57 46 -88t114 -31zM934 92q0 -58 10 -92h-291v104q-119 -133 -323 -133q-164 0 -254 80t-90 199q0 152 106 245t299 115q70 9 151 17t129 15t79 30
q30 22 37 42t8 50q-1 72 -57 100t-133 29q-77 0 -137 -40t-73 -116h-272q18 127 95 208t177 112q170 53 381 19q294 -46 289 -267q0 -76 -23 -178l-94 -426q-14 -55 -14 -113z" />
    <glyph glyph-name="acircumflex" unicode="&#xe2;" horiz-adv-x="1175" 
d="M594 1497h258l170 -291h-205l-102 166l-178 -166h-224zM436 166q121 0 181 66t92 174l28 102q-66 -39 -245 -51q-98 -10 -156 -46t-60 -126q0 -57 46 -88t114 -31zM934 92q0 -58 10 -92h-291v104q-119 -133 -323 -133q-164 0 -254 80t-90 199q0 152 106 245t299 115
q70 9 151 17t129 15t79 30q30 22 37 42t8 50q-1 72 -57 100t-133 29q-77 0 -137 -40t-73 -116h-272q18 127 95 208t177 112q170 53 381 19q294 -46 289 -267q0 -76 -23 -178l-94 -426q-14 -55 -14 -113z" />
    <glyph glyph-name="atilde" unicode="&#xe3;" horiz-adv-x="1175" 
d="M532 1313q-44 -1 -60 -21q-17 -20 -30 -65h-125q25 113 81 181t177 69q39 0 132 -35q86 -37 133 -37q46 0 68 20t20 52h141l-18 -61q-5 -20 -25 -60q-55 -111 -171 -112q-74 -1 -183 34q-96 35 -140 35zM436 166q121 0 181 66t92 174l28 102q-66 -39 -245 -51
q-98 -10 -156 -46t-60 -126q0 -57 46 -88t114 -31zM934 92q0 -58 10 -92h-291v104q-119 -133 -323 -133q-164 0 -254 80t-90 199q0 152 106 245t299 115q70 9 151 17t129 15t79 30q30 22 37 42t8 50q-1 72 -57 100t-133 29q-77 0 -137 -40t-73 -116h-272q18 127 95 208
t177 112q170 53 381 19q294 -46 289 -267q0 -76 -23 -178l-94 -426q-14 -55 -14 -113z" />
    <glyph glyph-name="adieresis" unicode="&#xe4;" horiz-adv-x="1175" 
d="M786 1464h269l-49 -239h-269zM385 1464h268l-49 -239h-268zM436 166q121 0 181 66t92 174l28 102q-66 -39 -245 -51q-98 -10 -156 -46t-60 -126q0 -57 46 -88t114 -31zM934 92q0 -58 10 -92h-291v104q-119 -133 -323 -133q-164 0 -254 80t-90 199q0 152 106 245t299 115
q70 9 151 17t129 15t79 30q30 22 37 42t8 50q-1 72 -57 100t-133 29q-77 0 -137 -40t-73 -116h-272q18 127 95 208t177 112q170 53 381 19q294 -46 289 -267q0 -76 -23 -178l-94 -426q-14 -55 -14 -113z" />
    <glyph glyph-name="aring" unicode="&#xe5;" horiz-adv-x="1175" 
d="M565 1401q0 -61 34 -99t93 -38t94 38t35 99t-35 99t-94 38t-93 -38t-34 -99zM942 1398q0 -106 -70 -174t-182 -67q-112 -1 -180 67t-68 174t72 178q72 71 177 71t178 -71q73 -72 73 -178zM436 166q121 0 181 66t92 174l28 102q-66 -39 -245 -51q-98 -10 -156 -46
t-60 -126q0 -57 46 -88t114 -31zM934 92q0 -58 10 -92h-291v104q-119 -133 -323 -133q-164 0 -254 80t-90 199q0 152 106 245t299 115q70 9 151 17t129 15t79 30q30 22 37 42t8 50q-1 72 -57 100t-133 29q-77 0 -137 -40t-73 -116h-272q18 127 95 208t177 112q170 53 381 19
q294 -46 289 -267q0 -76 -23 -178l-94 -426q-14 -55 -14 -113z" />
    <glyph glyph-name="ae" unicode="&#xe6;" horiz-adv-x="1857" 
d="M1528 643q0 119 -44 185t-156 65q-112 0 -188 -71t-96 -179h484zM668 1087q106 -1 202 -33t140 -106q113 139 350 139q428 0 428 -479q0 -57 -10 -149h-762q-10 -43 -10 -109t61 -126q61 -58 164 -58q170 0 223 162h291q-137 -356 -535 -357q-276 0 -385 197
q-127 -197 -434 -197q-203 0 -293 78t-90 207q0 322 434 356q64 5 110 8q172 11 214 40t49 52q8 23 8 46q0 135 -164 135q-211 0 -231 -156h-281q72 350 521 350zM299 293q0 -127 170 -127q242 0 289 254l16 90q-70 -39 -293 -61q-82 -7 -132 -49t-50 -107z" />
    <glyph glyph-name="ccedilla" unicode="&#xe7;" horiz-adv-x="1138" 
d="M20 426q0 281 161 471t437 190q207 0 339 -97t137 -298h-291q0 176 -195 176q-78 0 -138 -44t-93 -114q-64 -134 -66 -290q0 -102 48 -166t153 -64q174 0 236 197h290q-139 -416 -546 -416q-29 0 -43 2l-60 -82l6 -4q108 41 201 -22q55 -37 55 -107q0 -203 -239 -202
q-131 0 -254 45l43 98q86 -37 170 -37t84 67t-82 66q-45 0 -82 -14l-43 49l108 154q-336 59 -336 442z" />
    <glyph glyph-name="egrave" unicode="&#xe8;" horiz-adv-x="1175" 
d="M780 1206h-205l-286 291h311zM299 424v-27q0 -96 59 -151t174 -56q52 0 98 25t68 51t52 70h290q-72 -184 -199 -275q-128 -90 -347 -90t-347 120q-127 120 -127 343q0 266 162 460t422 193q227 0 361 -118q133 -119 133 -344q0 -78 -17 -166h-780q-2 -14 -2 -35zM817 643
q0 225 -196 225q-209 0 -289 -225h485z" />
    <glyph glyph-name="eacute" unicode="&#xe9;" horiz-adv-x="1175" 
d="M750 1206h-205l180 291h311zM299 424v-27q0 -96 59 -151t174 -56q52 0 98 25t68 51t52 70h290q-72 -184 -199 -275q-128 -90 -347 -90t-347 120q-127 120 -127 343q0 266 162 460t422 193q227 0 361 -118q133 -119 133 -344q0 -78 -17 -166h-780q-2 -14 -2 -35zM817 643
q0 225 -196 225q-209 0 -289 -225h485z" />
    <glyph glyph-name="ecircumflex" unicode="&#xea;" horiz-adv-x="1175" 
d="M590 1497h258l170 -291h-205l-102 166l-179 -166h-223zM299 424v-27q0 -96 59 -151t174 -56q52 0 98 25t68 51t52 70h290q-72 -184 -199 -275q-128 -90 -347 -90t-347 120q-127 120 -127 343q0 266 162 460t422 193q227 0 361 -118q133 -119 133 -344q0 -78 -17 -166
h-780q-2 -14 -2 -35zM817 643q0 225 -196 225q-209 0 -289 -225h485z" />
    <glyph glyph-name="edieresis" unicode="&#xeb;" horiz-adv-x="1175" 
d="M782 1464h269l-50 -239h-268zM381 1464h268l-49 -239h-268zM299 424v-27q0 -96 59 -151t174 -56q52 0 98 25t68 51t52 70h290q-72 -184 -199 -275q-128 -90 -347 -90t-347 120q-127 120 -127 343q0 266 162 460t422 193q227 0 361 -118q133 -119 133 -344q0 -78 -17 -166
h-780q-2 -14 -2 -35zM817 643q0 225 -196 225q-209 0 -289 -225h485z" />
    <glyph glyph-name="igrave" unicode="&#xec;" 
d="M487 1206h-204l-287 291h311zM268 0h-293l226 1059h293z" />
    <glyph glyph-name="iacute" unicode="&#xed;" 
d="M410 1206h-205l180 291h311zM268 0h-293l226 1059h293z" />
    <glyph glyph-name="icircumflex" unicode="&#xee;" 
d="M293 1497h258l170 -291h-205l-102 166l-178 -166h-224zM268 0h-293l226 1059h293z" />
    <glyph glyph-name="idieresis" unicode="&#xef;" 
d="M492 1464h268l-49 -239h-269zM90 1464h268l-49 -239h-268zM268 0h-293l226 1059h293z" />
    <glyph glyph-name="eth" unicode="&#xf0;" horiz-adv-x="1214" 
d="M520 190q98 0 173 76q140 142 138 369q0 92 -52 149q-51 58 -155 58t-178 -74q-135 -135 -135 -340q-1 -100 55 -169t154 -69zM1122 737q0 -130 -33 -260q-33 -131 -79 -210t-112 -147q-65 -68 -166 -109q-101 -40 -226 -40q-225 0 -355 117q-131 118 -131 350t169 415
t440 183q152 0 227 -92l4 4q-20 156 -117 289l-247 -121l-131 127l256 125q-100 80 -183 115l191 114q102 -57 186 -135l248 121l129 -125l-254 -125q184 -240 184 -596z" />
    <glyph glyph-name="ntilde" unicode="&#xf1;" horiz-adv-x="1251" 
d="M561 1313q-43 -1 -60 -21t-30 -65h-125q25 113 81 181t177 69q39 0 131 -35q86 -37 133 -37t69 20t19 52h142q-41 -139 -91 -185q-50 -47 -124 -48t-183 34q-96 35 -139 35zM817 1087q309 0 309 -284q0 -34 -14 -103t-16 -79l-131 -621h-291l129 621q18 98 18 136
q0 37 -43 69t-96 32q-123 0 -196 -84t-101 -211l-119 -563h-291l222 1059h278l-33 -148h4q141 176 371 176z" />
    <glyph glyph-name="ograve" unicode="&#xf2;" horiz-adv-x="1214" 
d="M793 1206h-205l-287 291h311zM20 428q0 279 167 469t442 190q225 1 359 -113t134 -335q0 -287 -168 -477t-448 -191q-226 0 -356 117t-130 340zM311 428q-1 -100 55 -169t156 -69t174 76q137 141 136 372q-1 230 -214 230q-145 0 -226 -141t-81 -299z" />
    <glyph glyph-name="oacute" unicode="&#xf3;" horiz-adv-x="1214" 
d="M797 1206h-205l180 291h311zM20 428q0 279 167 469t442 190q225 1 359 -113t134 -335q0 -287 -168 -477t-448 -191q-226 0 -356 117t-130 340zM311 428q-1 -100 55 -169t156 -69t174 76q137 141 136 372q-1 230 -214 230q-145 0 -226 -141t-81 -299z" />
    <glyph glyph-name="ocircumflex" unicode="&#xf4;" horiz-adv-x="1214" 
d="M618 1497h259l170 -291h-205l-103 166l-178 -166h-223zM20 428q0 279 167 469t442 190q225 1 359 -113t134 -335q0 -287 -168 -477t-448 -191q-226 0 -356 117t-130 340zM311 428q-1 -100 55 -169t156 -69t174 76q137 141 136 372q-1 230 -214 230q-145 0 -226 -141
t-81 -299z" />
    <glyph glyph-name="otilde" unicode="&#xf5;" horiz-adv-x="1214" 
d="M551 1313q-43 -1 -61 -21t-29 -65h-125q25 113 81 181t177 69q39 0 131 -35q86 -37 133 -37t69 20t19 52h141l-18 -61q-5 -20 -25 -60q-55 -111 -171 -112q-74 -1 -183 34q-96 35 -139 35zM20 428q0 279 167 469t442 190q225 1 359 -113t134 -335q0 -287 -168 -477
t-448 -191q-226 0 -356 117t-130 340zM311 428q-1 -100 55 -169t156 -69t174 76q137 141 136 372q-1 230 -214 230q-145 0 -226 -141t-81 -299z" />
    <glyph glyph-name="odieresis" unicode="&#xf6;" horiz-adv-x="1214" 
d="M825 1464h269l-50 -239h-268zM424 1464h268l-49 -239h-268zM20 428q0 279 167 469t442 190q225 1 359 -113t134 -335q0 -287 -168 -477t-448 -191q-226 0 -356 117t-130 340zM311 428q-1 -100 55 -169t156 -69t174 76q137 141 136 372q-1 230 -214 230q-145 0 -226 -141
t-81 -299z" />
    <glyph glyph-name="divide" unicode="&#xf7;" horiz-adv-x="1228" 
d="M98 627h1035v-219h-1035v219zM616 770q-70 0 -122 51t-52 122t52 122t122 51t121 -51t51 -121t-51 -122t-121 -52zM616 -82q-70 0 -122 52t-52 123t52 121t122 50t121 -50t51 -119t-51 -123t-121 -54z" />
    <glyph glyph-name="oslash" unicode="&#xf8;" horiz-adv-x="1214" 
d="M311 428q0 -41 8 -66l469 433q-47 74 -170 73q-145 0 -226 -141t-81 -299zM518 190q104 0 178 76q137 141 135 369q0 39 -6 70l-469 -431q58 -84 162 -84zM20 428q0 279 167 469t442 190q225 0 356 -110l139 127l62 -68l-139 -127q76 -111 75 -270q0 -287 -168 -477
t-448 -191q-233 0 -352 117l-150 -137l-59 67l149 138q-74 106 -74 272z" />
    <glyph glyph-name="ugrave" unicode="&#xf9;" horiz-adv-x="1251" 
d="M836 1206h-205l-287 291h311zM358 -29q-309 0 -309 285q0 72 31 182l131 621h291l-129 -621q-18 -55 -19 -129q0 -45 43 -77t97 -31q124 0 196 84t101 211l118 563h291l-221 -1059h-279l33 147h-4q-141 -176 -371 -176z" />
    <glyph glyph-name="uacute" unicode="&#xfa;" horiz-adv-x="1251" 
d="M829 1206h-204l180 291h311zM358 -29q-309 0 -309 285q0 72 31 182l131 621h291l-129 -621q-18 -55 -19 -129q0 -45 43 -77t97 -31q124 0 196 84t101 211l118 563h291l-221 -1059h-279l33 147h-4q-141 -176 -371 -176z" />
    <glyph glyph-name="ucircumflex" unicode="&#xfb;" horiz-adv-x="1251" 
d="M647 1497h258l170 -291h-205l-102 166l-178 -166h-223zM358 -29q-309 0 -309 285q0 72 31 182l131 621h291l-129 -621q-18 -55 -19 -129q0 -45 43 -77t97 -31q124 0 196 84t101 211l118 563h291l-221 -1059h-279l33 147h-4q-141 -176 -371 -176z" />
    <glyph glyph-name="udieresis" unicode="&#xfc;" horiz-adv-x="1251" 
d="M844 1464h268l-49 -239h-268zM442 1464h269l-49 -239h-269zM358 -29q-309 0 -309 285q0 72 31 182l131 621h291l-129 -621q-18 -55 -19 -129q0 -45 43 -77t97 -31q124 0 196 84t101 211l118 563h291l-221 -1059h-279l33 147h-4q-141 -176 -371 -176z" />
    <glyph glyph-name="yacute" unicode="&#xfd;" horiz-adv-x="1062" 
d="M727 1206h-205l180 291h312zM27 -373q-29 0 -82 5t-74 6l49 241l119 -12q47 0 83 16q36 15 49 31t34 52q20 36 26 44l-188 1049h299l92 -758h4l367 758h307l-674 -1209q-74 -133 -160 -178t-251 -45z" />
    <glyph glyph-name="thorn" unicode="&#xfe;" horiz-adv-x="1251" 
d="M1159 670q0 -272 -140 -480q-69 -100 -181 -159t-234 -59q-250 -1 -319 169h-4l-111 -514h-291l387 1835h291l-117 -536h4q84 162 314 161q190 0 296 -111q105 -112 105 -306zM660 868q-100 0 -177 -75q-141 -141 -141 -373q0 -106 53 -168t157 -62t178 74q75 74 107 171
q31 97 31 197t-54 168t-154 68z" />
    <glyph glyph-name="ydieresis" unicode="&#xff;" horiz-adv-x="1062" 
d="M721 1464h268l-49 -239h-268zM319 1464h269l-49 -239h-269zM27 -373q-29 0 -82 5t-74 6l49 241l119 -12q47 0 83 16q36 15 49 31t34 52q20 36 26 44l-188 1049h299l92 -758h4l367 758h307l-674 -1209q-74 -133 -160 -178t-251 -45z" />
    <glyph glyph-name="Amacron" unicode="&#x100;" horiz-adv-x="1402" 
d="M598 1810h625l-29 -153h-625zM494 565h391l-72 582h-4zM707 1462h329l244 -1462h-319l-48 326h-546l-185 -326h-340z" />
    <glyph glyph-name="amacron" unicode="&#x101;" horiz-adv-x="1175" 
d="M403 1421h625l-29 -153h-624zM436 166q121 0 181 66t92 174l28 102q-66 -39 -245 -51q-98 -10 -156 -46t-60 -126q0 -57 46 -88t114 -31zM934 92q0 -58 10 -92h-291v104q-119 -133 -323 -133q-164 0 -254 80t-90 199q0 152 106 245t299 115q70 9 151 17t129 15t79 30
q30 22 37 42t8 50q-1 72 -57 100t-133 29q-77 0 -137 -40t-73 -116h-272q18 127 95 208t177 112q170 53 381 19q294 -46 289 -267q0 -76 -23 -178l-94 -426q-14 -55 -14 -113z" />
    <glyph glyph-name="Abreve" unicode="&#x102;" horiz-adv-x="1402" 
d="M894 1745q85 0 138 36t92 109h136q-86 -299 -388 -299q-141 0 -224 81t-83 218h133q6 -72 58 -108t138 -37zM494 565h391l-72 582h-4zM707 1462h329l244 -1462h-319l-48 326h-546l-185 -326h-340z" />
    <glyph glyph-name="abreve" unicode="&#x103;" horiz-adv-x="1175" 
d="M689 1356q85 0 138 36t93 109h135q-86 -299 -387 -299q-141 0 -225 81q-83 81 -83 218h134q6 -73 58 -109t137 -36zM436 166q121 0 181 66t92 174l28 102q-66 -39 -245 -51q-98 -10 -156 -46t-60 -126q0 -57 46 -88t114 -31zM934 92q0 -58 10 -92h-291v104
q-119 -133 -323 -133q-164 0 -254 80t-90 199q0 152 106 245t299 115q70 9 151 17t129 15t79 30q30 22 37 42t8 50q-1 72 -57 100t-133 29q-77 0 -137 -40t-73 -116h-272q18 127 95 208t177 112q170 53 381 19q294 -46 289 -267q0 -76 -23 -178l-94 -426q-14 -55 -14 -113z
" />
    <glyph glyph-name="Aogonek" unicode="&#x104;" horiz-adv-x="1402" 
d="M494 565h391l-72 582h-4zM1094 0q-240 -140 -240 -238q0 -44 24 -64q24 -19 56 -20q63 0 119 62l94 -51q-104 -133 -259 -133t-205 82q-26 41 -26 83q1 43 11 69q52 131 293 210l-48 326h-546l-185 -326h-340l865 1462h329l244 -1462h-186z" />
    <glyph glyph-name="aogonek" unicode="&#x105;" horiz-adv-x="1175" 
d="M436 166q121 0 181 66t92 174l28 102q-66 -39 -245 -51q-98 -10 -156 -46t-60 -126q0 -57 46 -88t114 -31zM768 0q-205 -140 -205 -238q1 -44 21 -63q20 -20 47 -21q51 0 102 62l80 -51q-90 -133 -229 -133q-51 0 -97 20q-90 38 -90 162q0 35 15 73q14 38 75 93t166 96
v104q-119 -133 -323 -133q-164 0 -254 80t-90 199q0 152 106 245t299 115q70 9 151 17t129 15t79 30q30 22 37 42t8 50q-1 72 -57 100t-133 29q-77 0 -137 -40t-73 -116h-272q18 127 95 208t177 112q170 53 381 19q294 -46 289 -267q0 -76 -23 -178l-94 -426
q-14 -55 -14 -113t10 -92h-176z" />
    <glyph glyph-name="Cacute" unicode="&#x106;" horiz-adv-x="1517" 
d="M1020 1595h-205l180 291h312zM1139 954q0 131 -71 202t-209 71q-138 1 -251 -97q-211 -182 -211 -518q0 -164 83 -270t249 -106q129 0 225 85t119 205h322q-96 -297 -260 -429t-410 -132q-309 0 -479 168t-170 479q0 238 95 439t279 323t436 123q252 0 416 -142t158 -401
h-321z" />
    <glyph glyph-name="cacute" unicode="&#x107;" horiz-adv-x="1138" 
d="M743 1206h-204l180 291h311zM803 692q0 176 -195 176q-78 0 -138 -44t-93 -114q-64 -134 -66 -290q0 -102 48 -166t153 -64q174 0 236 197h290q-139 -416 -546 -416q-227 0 -350 113q-122 113 -122 342q0 281 161 471t437 190q207 0 339 -97t137 -298h-291z" />
    <glyph glyph-name="Ccircumflex" unicode="&#x108;" horiz-adv-x="1517" 
d="M856 1886h258l170 -291h-205l-102 166l-178 -166h-224zM1139 954q0 131 -71 202t-209 71q-138 1 -251 -97q-211 -182 -211 -518q0 -164 83 -270t249 -106q129 0 225 85t119 205h322q-96 -297 -260 -429t-410 -132q-309 0 -479 168t-170 479q0 238 95 439t279 323t436 123
q252 0 416 -142t158 -401h-321z" />
    <glyph glyph-name="ccircumflex" unicode="&#x109;" horiz-adv-x="1138" 
d="M590 1497h258l170 -291h-205l-102 166l-179 -166h-223zM803 692q0 176 -195 176q-78 0 -138 -44t-93 -114q-64 -134 -66 -290q0 -102 48 -166t153 -64q174 0 236 197h290q-139 -416 -546 -416q-227 0 -350 113q-122 113 -122 342q0 281 161 471t437 190q207 0 339 -97
t137 -298h-291z" />
    <glyph glyph-name="Cdotaccent" unicode="&#x10a;" horiz-adv-x="1517" 
d="M831 1853h269l-49 -239h-269zM1139 954q0 131 -71 202t-209 71q-138 1 -251 -97q-211 -182 -211 -518q0 -164 83 -270t249 -106q129 0 225 85t119 205h322q-96 -297 -260 -429t-410 -132q-309 0 -479 168t-170 479q0 238 95 439t279 323t436 123q252 0 416 -142t158 -401
h-321z" />
    <glyph glyph-name="cdotaccent" unicode="&#x10b;" horiz-adv-x="1138" 
d="M584 1464h268l-49 -239h-268zM803 692q0 176 -195 176q-78 0 -138 -44t-93 -114q-64 -134 -66 -290q0 -102 48 -166t153 -64q174 0 236 197h290q-139 -416 -546 -416q-227 0 -350 113q-122 113 -122 342q0 281 161 471t437 190q207 0 339 -97t137 -298h-291z" />
    <glyph glyph-name="Ccaron" unicode="&#x10c;" horiz-adv-x="1517" 
d="M1040 1595h-258l-170 291h205l103 -170l178 170h223zM1139 954q0 131 -71 202t-209 71q-138 1 -251 -97q-211 -182 -211 -518q0 -164 83 -270t249 -106q129 0 225 85t119 205h322q-96 -297 -260 -429t-410 -132q-309 0 -479 168t-170 479q0 238 95 439t279 323t436 123
q252 0 416 -142t158 -401h-321z" />
    <glyph glyph-name="ccaron" unicode="&#x10d;" horiz-adv-x="1138" 
d="M782 1206h-258l-170 291h205l103 -170l178 170h223zM803 692q0 176 -195 176q-78 0 -138 -44t-93 -114q-64 -134 -66 -290q0 -102 48 -166t153 -64q174 0 236 197h290q-139 -416 -546 -416q-227 0 -350 113q-122 113 -122 342q0 281 161 471t437 190q207 0 339 -97
t137 -298h-291z" />
    <glyph glyph-name="Dcaron" unicode="&#x10e;" horiz-adv-x="1517" 
d="M936 1595h-258l-170 291h205l102 -170l178 170h224zM829 1462q305 0 463 -148t158 -421q0 -397 -219 -645t-627 -248h-612l309 1462h528zM618 270q238 0 374 163t136 405q0 354 -319 354h-242l-196 -922h247z" />
    <glyph glyph-name="dcaron" unicode="&#x10f;" horiz-adv-x="1482" 
d="M1542 1171h-201l138 291h303zM424 -29q-190 0 -297 112q-106 112 -107 306q0 275 141 479q69 100 183 160t232 59q120 0 203 -44t116 -125h4l117 544h291l-310 -1462h-280l28 131l-4 4q-94 -164 -317 -164zM838 642q0 102 -54 164t-156 62q-103 0 -178 -74
q-139 -136 -139 -368q1 -100 55 -168t154 -68t176 76t109 175t33 201z" />
    <glyph glyph-name="Dcroat" unicode="&#x110;" horiz-adv-x="1517" 
d="M829 1462q305 0 463 -148t158 -421q0 -397 -219 -645t-627 -248h-612l133 635h-168l51 239h170l123 588h528zM618 270q238 0 374 163t136 405q0 354 -319 354h-242l-67 -318h344l-51 -239h-347l-75 -365h247z" />
    <glyph glyph-name="dcroat" unicode="&#x111;" horiz-adv-x="1314" 
d="M838 642q0 102 -54 164t-156 62q-103 0 -178 -74q-139 -136 -139 -368q1 -100 55 -168t154 -68t176 76t109 175t33 201zM424 -29q-190 0 -297 112q-106 112 -107 306q0 275 141 479q69 100 183 160t232 59q120 0 203 -44t116 -125h4l53 251h-235l28 154h240l31 139h291
l-31 -139h190l-28 -154h-193l-248 -1169h-280l28 131l-4 4q-94 -164 -317 -164z" />
    <glyph glyph-name="Emacron" unicode="&#x112;" horiz-adv-x="1366" 
d="M586 1810h624l-28 -153h-625zM299 1462h1116l-55 -270h-795l-65 -313h735l-53 -250h-736l-75 -359h807l-58 -270h-1128z" />
    <glyph glyph-name="emacron" unicode="&#x113;" horiz-adv-x="1175" 
d="M391 1421h625l-29 -153h-625zM299 424v-27q0 -96 59 -151t174 -56q52 0 98 25t68 51t52 70h290q-72 -184 -199 -275q-128 -90 -347 -90t-347 120q-127 120 -127 343q0 266 162 460t422 193q227 0 361 -118q133 -119 133 -344q0 -78 -17 -166h-780q-2 -14 -2 -35zM817 643
q0 225 -196 225q-209 0 -289 -225h485z" />
    <glyph glyph-name="Ebreve" unicode="&#x114;" horiz-adv-x="1366" 
d="M873 1745q85 0 139 36q53 36 92 109h135q-86 -299 -387 -299q-141 0 -224 81t-83 218h133q6 -72 58 -108t137 -37zM299 1462h1116l-55 -270h-795l-65 -313h735l-53 -250h-736l-75 -359h807l-58 -270h-1128z" />
    <glyph glyph-name="ebreve" unicode="&#x115;" horiz-adv-x="1175" 
d="M691 1356q85 0 138 36t93 109h135q-86 -299 -387 -299q-141 0 -225 81q-83 81 -83 218h134q6 -73 58 -109t137 -36zM299 424v-27q0 -96 59 -151t174 -56q52 0 98 25t68 51t52 70h290q-72 -184 -199 -275q-128 -90 -347 -90t-347 120q-127 120 -127 343q0 266 162 460
t422 193q227 0 361 -118q133 -119 133 -344q0 -78 -17 -166h-780q-2 -14 -2 -35zM817 643q0 225 -196 225q-209 0 -289 -225h485z" />
    <glyph glyph-name="Edotaccent" unicode="&#x116;" horiz-adv-x="1366" 
d="M780 1853h269l-50 -239h-268zM299 1462h1116l-55 -270h-795l-65 -313h735l-53 -250h-736l-75 -359h807l-58 -270h-1128z" />
    <glyph glyph-name="edotaccent" unicode="&#x117;" horiz-adv-x="1175" 
d="M586 1464h268l-49 -239h-268zM299 424v-27q0 -96 59 -151t174 -56q52 0 98 25t68 51t52 70h290q-72 -184 -199 -275q-128 -90 -347 -90t-347 120q-127 120 -127 343q0 266 162 460t422 193q227 0 361 -118q133 -119 133 -344q0 -78 -17 -166h-780q-2 -14 -2 -35zM817 643
q0 225 -196 225q-209 0 -289 -225h485z" />
    <glyph glyph-name="Eogonek" unicode="&#x118;" horiz-adv-x="1366" 
d="M1004 0q-240 -140 -240 -238q0 -44 24 -64q24 -19 56 -20q63 0 119 62l94 -51q-104 -133 -271 -133q-59 0 -113 20q-106 39 -106 162q0 50 56 124t247 138h-878l307 1462h1116l-55 -270h-795l-65 -313h735l-53 -250h-736l-75 -359h807l-58 -270h-116z" />
    <glyph glyph-name="eogonek" unicode="&#x119;" horiz-adv-x="1175" 
d="M817 643q0 225 -196 225q-209 0 -289 -225h485zM1098 625q0 -78 -17 -166h-780q-2 -14 -2 -35v-27q0 -96 59 -151t174 -56q52 0 98 25t68 51t52 70h290q-109 -279 -348 -340q-45 -14 -106 -21q-50 -28 -78 -51q-119 -92 -119 -176q0 -31 24 -50t56 -20q63 0 119 62
l94 -51q-104 -133 -259 -133t-205 82q-26 41 -25 100q0 96 141 190q39 27 90 47q-70 6 -127 25q-276 100 -277 434q0 266 162 460t422 193q227 0 361 -118q133 -119 133 -344z" />
    <glyph glyph-name="Ecaron" unicode="&#x11a;" horiz-adv-x="1366" 
d="M987 1595h-258l-170 291h205l102 -170l178 170h224zM299 1462h1116l-55 -270h-795l-65 -313h735l-53 -250h-736l-75 -359h807l-58 -270h-1128z" />
    <glyph glyph-name="ecaron" unicode="&#x11b;" horiz-adv-x="1175" 
d="M772 1206h-258l-170 291h205l102 -170l178 170h224zM299 424v-27q0 -96 59 -151t174 -56q52 0 98 25t68 51t52 70h290q-72 -184 -199 -275q-128 -90 -347 -90t-347 120q-127 120 -127 343q0 266 162 460t422 193q227 0 361 -118q133 -119 133 -344q0 -78 -17 -166h-780
q-2 -14 -2 -35zM817 643q0 225 -196 225q-209 0 -289 -225h485z" />
    <glyph glyph-name="Gcircumflex" unicode="&#x11c;" horiz-adv-x="1554" 
d="M852 1886h258l170 -291h-205l-102 166l-178 -166h-224zM1098 150h-4q-135 -184 -369 -185q-309 0 -479 168t-170 479q0 238 95 439t279 323t440 123q256 0 430 -131t175 -387h-321q-12 248 -297 248q-156 1 -269 -97q-211 -182 -211 -518q0 -164 83 -270t252 -106t263 82
t140 233h-338l51 240h620l-168 -791h-202v150z" />
    <glyph glyph-name="gcircumflex" unicode="&#x11d;" horiz-adv-x="1251" 
d="M674 1497h258l170 -291h-205l-102 166l-179 -166h-223zM623 868q-135 0 -216 -127t-81 -249t49 -190q49 -67 147 -66q143 0 227 125q83 126 82 278q0 105 -53 167t-155 62zM-39 -55h291q-4 -76 53 -114t123 -38q114 0 181 69q28 28 54 84t74 216l-4 4
q-113 -150 -296 -150t-293 118t-109 315q0 251 147 445t388 194t323 -191h4l33 162h278l-211 -1004q-53 -241 -188 -349t-393 -108t-384 145q-71 81 -71 202z" />
    <glyph glyph-name="Gbreve" unicode="&#x11e;" horiz-adv-x="1554" 
d="M933 1745q85 0 138 36t92 109h135q-86 -299 -387 -299q-141 0 -224 81t-83 218h133q7 -72 59 -108t137 -37zM1098 150h-4q-135 -184 -369 -185q-309 0 -479 168t-170 479q0 238 95 439t279 323t440 123q256 0 430 -131t175 -387h-321q-12 248 -297 248q-156 1 -269 -97
q-211 -182 -211 -518q0 -164 83 -270t252 -106t263 82t140 233h-338l51 240h620l-168 -791h-202v150z" />
    <glyph glyph-name="gbreve" unicode="&#x11f;" horiz-adv-x="1251" 
d="M761 1356q85 0 138 36t92 109h135q-86 -299 -387 -299q-141 0 -224 81t-83 218h133q7 -73 59 -109t137 -36zM623 868q-135 0 -216 -127t-81 -249t49 -190q49 -67 147 -66q143 0 227 125q83 126 82 278q0 105 -53 167t-155 62zM-39 -55h291q-4 -76 53 -114t123 -38
q114 0 181 69q28 28 54 84t74 216l-4 4q-113 -150 -296 -150t-293 118t-109 315q0 251 147 445t388 194t323 -191h4l33 162h278l-211 -1004q-53 -241 -188 -349t-393 -108t-384 145q-71 81 -71 202z" />
    <glyph glyph-name="Gdotaccent" unicode="&#x120;" horiz-adv-x="1554" 
d="M823 1853h269l-50 -239h-268zM1098 150h-4q-135 -184 -369 -185q-309 0 -479 168t-170 479q0 238 95 439t279 323t440 123q256 0 430 -131t175 -387h-321q-12 248 -297 248q-156 1 -269 -97q-211 -182 -211 -518q0 -164 83 -270t252 -106t263 82t140 233h-338l51 240h620
l-168 -791h-202v150z" />
    <glyph glyph-name="gdotaccent" unicode="&#x121;" horiz-adv-x="1251" 
d="M614 1464h269l-49 -239h-269zM623 868q-135 0 -216 -127t-81 -249t49 -190q49 -67 147 -66q143 0 227 125q83 126 82 278q0 105 -53 167t-155 62zM-39 -55h291q-4 -76 53 -114t123 -38q114 0 181 69q28 28 54 84t74 216l-4 4q-113 -150 -296 -150t-293 118t-109 315
q0 251 147 445t388 194t323 -191h4l33 162h278l-211 -1004q-53 -241 -188 -349t-393 -108t-384 145q-71 81 -71 202z" />
    <glyph glyph-name="Gcommaaccent" unicode="&#x122;" horiz-adv-x="1554" 
d="M551 -102h297l-31 -150q-31 -119 -105 -157t-212 -35l16 75q100 10 133 76h-137zM1098 150h-4q-135 -184 -369 -185q-309 0 -479 168t-170 479q0 238 95 439t279 323t440 123q256 0 430 -131t175 -387h-321q-12 248 -297 248q-156 1 -269 -97q-211 -182 -211 -518
q0 -164 83 -270t252 -106t263 82t140 233h-338l51 240h620l-168 -791h-202v150z" />
    <glyph glyph-name="gcommaaccent" unicode="&#x123;" horiz-adv-x="1251" 
d="M879 1272h-297l30 149q31 119 106 157t212 36l-17 -76q-100 -10 -133 -76h138zM623 868q-135 0 -216 -127t-81 -249t49 -190q49 -67 147 -66q143 0 227 125q83 126 82 278q0 105 -53 167t-155 62zM-39 -55h291q-4 -76 53 -114t123 -38q114 0 181 69q28 28 54 84t74 216
l-4 4q-113 -150 -296 -150t-293 118t-109 315q0 251 147 445t388 194t323 -191h4l33 162h278l-211 -1004q-53 -241 -188 -349t-393 -108t-384 145q-71 81 -71 202z" />
    <glyph glyph-name="Hcircumflex" unicode="&#x124;" horiz-adv-x="1517" 
d="M850 1886h258l170 -291h-205l-102 166l-178 -166h-224zM301 1462h324l-119 -561h592l119 561h323l-309 -1462h-324l133 631h-591l-134 -631h-323z" />
    <glyph glyph-name="hcircumflex" unicode="&#x125;" horiz-adv-x="1251" 
d="M690 1886h258l170 -291h-205l-102 166l-178 -166h-223zM817 1087q309 0 309 -284q0 -34 -14 -103t-16 -79l-131 -621h-291l129 621q18 98 18 136q0 37 -43 69t-96 32q-123 0 -196 -84t-101 -211l-119 -563h-291l306 1462h290l-108 -526h4q43 59 132 105t218 46z" />
    <glyph glyph-name="Hbar" unicode="&#x126;" horiz-adv-x="1517" 
d="M1090 860l32 158h-592l-32 -158h592zM301 1462h324l-62 -291h592l62 291h323l-309 -1462h-324l125 590h-592l-125 -590h-323z" />
    <glyph glyph-name="hbar" unicode="&#x127;" horiz-adv-x="1316" 
d="M883 1087q309 0 309 -284q0 -41 -14 -107t-17 -75l-131 -621h-291l129 621q18 98 18 136q0 37 -42 69q-43 32 -96 32q-123 0 -196 -84t-101 -211l-119 -563h-291l244 1169h-197l29 154h198l31 139h291l-29 -139h205l-29 -154h-209l-47 -233h4q42 59 132 105t219 46z" />
    <glyph glyph-name="Itilde" unicode="&#x128;" horiz-adv-x="606" 
d="M330 1702q-42 0 -60 -20t-30 -66h-125q25 114 81 182t177 68q39 0 131 -35q86 -37 133 -37t69 20t19 52h141l-18 -62q-6 -20 -26 -59q-55 -111 -171 -112q-73 -1 -182 34q-96 35 -139 35zM301 1462h324l-310 -1462h-323z" />
    <glyph glyph-name="itilde" unicode="&#x129;" 
d="M207 1313q-43 -1 -61 -21t-29 -65h-125q25 113 81 181t177 69q39 0 131 -35q86 -37 133 -37t69 20t19 52h141l-18 -61q-5 -20 -25 -60q-55 -111 -171 -112q-74 -1 -183 34q-96 35 -139 35zM268 0h-293l226 1059h293z" />
    <glyph glyph-name="Imacron" unicode="&#x12a;" horiz-adv-x="606" 
d="M201 1810h624l-28 -153h-625zM301 1462h324l-310 -1462h-323z" />
    <glyph glyph-name="imacron" unicode="&#x12b;" 
d="M88 1421h625l-29 -153h-625zM268 0h-293l226 1059h293z" />
    <glyph glyph-name="Iogonek" unicode="&#x12e;" horiz-adv-x="606" 
d="M98 -444q-59 0 -113 20q-106 39 -106 162q0 52 39 103q73 95 264 159h-190l309 1462h324l-310 -1462q-239 -140 -239 -238q0 -44 24 -64q24 -19 56 -20q63 0 118 62l95 -51q-104 -133 -271 -133z" />
    <glyph glyph-name="iogonek" unicode="&#x12f;" 
d="M526 1223h-293l54 239h293zM72 -444q-51 0 -101 20q-96 38 -96 162q0 52 35 103q67 98 237 159h-172l226 1059h293l-226 -1059q-217 -138 -217 -238q-1 -82 85 -84q42 0 95 62l84 -51q-94 -133 -243 -133z" />
    <glyph glyph-name="Idotaccent" unicode="&#x130;" horiz-adv-x="606" 
d="M403 1853h269l-49 -239h-269zM301 1462h324l-310 -1462h-323z" />
    <glyph glyph-name="dotlessi" unicode="&#x131;" 
d="M268 0h-293l226 1059h293z" />
    <glyph glyph-name="Jcircumflex" unicode="&#x134;" horiz-adv-x="1138" 
d="M932 1886h258l170 -291h-205l-102 166l-179 -166h-223zM-39 319q0 84 27 226h293q-29 -127 -29 -181t46 -92q69 -56 183 -29q40 9 89 66q21 22 34 74q14 51 27 102l203 977h323l-217 -1046q-102 -451 -514 -451q-210 0 -338 87q-127 87 -127 267z" />
    <glyph glyph-name="jcircumflex" unicode="&#x135;" 
d="M272 1497h258l170 -291h-204l-103 166l-178 -166h-223zM-122 -133q50 0 72 51t32 91l12 48l211 1002h291l-232 -1098q-39 -178 -122 -256t-271 -78q-27 0 -75 5t-66 6l49 233q71 -4 99 -4z" />
    <glyph glyph-name="Kcommaaccent" unicode="&#x136;" horiz-adv-x="1478" 
d="M467 -102h297l-31 -150q-31 -119 -105 -157t-212 -35l16 75q100 10 133 76h-137zM297 1462h321l-126 -612h4l663 612h426l-702 -602l448 -860h-362l-334 657l-223 -194l-97 -463h-323z" />
    <glyph glyph-name="kcommaaccent" unicode="&#x137;" horiz-adv-x="1138" 
d="M303 -102h297l-31 -150q-31 -119 -105 -157t-212 -35l16 75q100 10 133 76h-137zM283 1462h290l-167 -794l4 -4l417 395h359l-475 -402l272 -657h-319l-175 473l-151 -129l-72 -344h-291z" />
    <glyph glyph-name="Lacute" unicode="&#x139;" horiz-adv-x="1175" 
d="M584 1595h-205l180 291h311zM299 1462h324l-250 -1192h706l-57 -270h-1030z" />
    <glyph glyph-name="lacute" unicode="&#x13a;" 
d="M512 1595h-205l180 291h312zM287 1462h291l-312 -1462h-291z" />
    <glyph glyph-name="Lcommaaccent" unicode="&#x13b;" horiz-adv-x="1175" 
d="M342 -102h297l-31 -150q-32 -119 -106 -157t-211 -35l16 75q100 10 133 76h-137zM299 1462h324l-250 -1192h706l-57 -270h-1030z" />
    <glyph glyph-name="lcommaaccent" unicode="&#x13c;" 
d="M-45 -102h297l-31 -150q-31 -119 -105 -157t-212 -35l16 75q100 10 133 76h-137zM287 1462h291l-312 -1462h-291z" />
    <glyph glyph-name="Lcaron" unicode="&#x13d;" horiz-adv-x="1175" 
d="M940 1171h-201l138 291h303zM299 1462h324l-250 -1192h706l-57 -270h-1030z" />
    <glyph glyph-name="lcaron" unicode="&#x13e;" horiz-adv-x="751" 
d="M811 1171h-201l138 291h303zM287 1462h291l-312 -1462h-291z" />
    <glyph glyph-name="Ldot" unicode="&#x13f;" horiz-adv-x="1175" 
d="M770 1059h268l-49 -240h-268zM299 1462h324l-250 -1192h706l-57 -270h-1030z" />
    <glyph glyph-name="ldot" unicode="&#x140;" horiz-adv-x="940" 
d="M633 1059h268l-49 -240h-268zM287 1462h291l-312 -1462h-291z" />
    <glyph glyph-name="Lslash" unicode="&#x141;" horiz-adv-x="1175" 
d="M78 410l-168 -115l43 227l174 119l172 821h324l-119 -561l418 287l-54 -236l-413 -284l-84 -398h708l-57 -270h-1030z" />
    <glyph glyph-name="lslash" unicode="&#x142;" 
d="M-25 0l121 569l-145 -110l53 250l146 110l137 643h291l-80 -381l170 129l-54 -247l-170 -129l-178 -834h-291z" />
    <glyph glyph-name="Nacute" unicode="&#x143;" horiz-adv-x="1517" 
d="M1020 1595h-205l180 291h312zM301 1462h332l397 -1040h4l209 1040h295l-309 -1462h-322l-401 1026h-4l-209 -1026h-301z" />
    <glyph glyph-name="nacute" unicode="&#x144;" horiz-adv-x="1251" 
d="M780 1206h-205l181 291h311zM817 1087q309 0 309 -284q0 -34 -14 -103t-16 -79l-131 -621h-291l129 621q18 98 18 136q0 37 -43 69t-96 32q-123 0 -196 -84t-101 -211l-119 -563h-291l222 1059h278l-33 -148h4q141 176 371 176z" />
    <glyph glyph-name="Ncommaaccent" unicode="&#x145;" horiz-adv-x="1517" 
d="M465 -102h297l-31 -150q-31 -119 -105 -157t-212 -35l16 75q100 10 133 76h-137zM301 1462h332l397 -1040h4l209 1040h295l-309 -1462h-322l-401 1026h-4l-209 -1026h-301z" />
    <glyph glyph-name="ncommaaccent" unicode="&#x146;" horiz-adv-x="1251" 
d="M305 -102h297l-31 -150q-31 -119 -105 -157t-212 -35l16 75q100 10 133 76h-137zM817 1087q309 0 309 -284q0 -34 -14 -103t-16 -79l-131 -621h-291l129 621q18 98 18 136q0 37 -43 69t-96 32q-123 0 -196 -84t-101 -211l-119 -563h-291l222 1059h278l-33 -148h4
q141 176 371 176z" />
    <glyph glyph-name="Ncaron" unicode="&#x147;" horiz-adv-x="1517" 
d="M1042 1595h-258l-170 291h205l103 -170l178 170h223zM301 1462h332l397 -1040h4l209 1040h295l-309 -1462h-322l-401 1026h-4l-209 -1026h-301z" />
    <glyph glyph-name="ncaron" unicode="&#x148;" horiz-adv-x="1251" 
d="M811 1206h-258l-170 291h205l102 -170l178 170h224zM817 1087q309 0 309 -284q0 -34 -14 -103t-16 -79l-131 -621h-291l129 621q18 98 18 136q0 37 -43 69t-96 32q-123 0 -196 -84t-101 -211l-119 -563h-291l222 1059h278l-33 -148h4q141 176 371 176z" />
    <glyph glyph-name="Omacron" unicode="&#x14c;" horiz-adv-x="1593" 
d="M668 1810h624l-28 -153h-625zM397 605q0 -157 83 -263t241 -106q157 0 269 97q212 184 212 515q0 168 -79 273t-241 105t-274 -97q-211 -181 -211 -524zM76 612q0 238 95 439t279 323t424 123q302 0 476 -162t174 -465q0 -246 -91 -448t-275 -330q-184 -127 -433 -127
q-309 0 -479 168t-170 479z" />
    <glyph glyph-name="omacron" unicode="&#x14d;" horiz-adv-x="1214" 
d="M418 1421h624l-28 -153h-625zM20 428q0 279 167 469t442 190q225 1 359 -113t134 -335q0 -287 -168 -477t-448 -191q-226 0 -356 117t-130 340zM311 428q-1 -100 55 -169t156 -69t174 76q137 141 136 372q-1 230 -214 230q-145 0 -226 -141t-81 -299z" />
    <glyph glyph-name="Obreve" unicode="&#x14e;" horiz-adv-x="1593" 
d="M961 1745q85 0 139 36q53 36 92 109h135q-86 -299 -387 -299q-141 0 -224 81t-83 218h133q6 -72 58 -108t137 -37zM397 605q0 -157 83 -263t241 -106q157 0 269 97q212 184 212 515q0 168 -79 273t-241 105t-274 -97q-211 -181 -211 -524zM76 612q0 238 95 439t279 323
t424 123q302 0 476 -162t174 -465q0 -246 -91 -448t-275 -330q-184 -127 -433 -127q-309 0 -479 168t-170 479z" />
    <glyph glyph-name="obreve" unicode="&#x14f;" horiz-adv-x="1214" 
d="M716 1356q85 0 138 36t92 109h135q-86 -299 -387 -299q-141 0 -224 81t-83 218h133q6 -73 58 -109t138 -36zM20 428q0 279 167 469t442 190q225 1 359 -113t134 -335q0 -287 -168 -477t-448 -191q-226 0 -356 117t-130 340zM311 428q-1 -100 55 -169t156 -69t174 76
q137 141 136 372q-1 230 -214 230q-145 0 -226 -141t-81 -299z" />
    <glyph glyph-name="Ohungarumlaut" unicode="&#x150;" horiz-adv-x="1593" 
d="M817 1595h-205l181 291h311zM1227 1595h-205l180 291h311zM397 605q0 -157 83 -263t241 -106q157 0 269 97q212 184 212 515q0 168 -79 273t-241 105t-274 -97q-211 -181 -211 -524zM76 612q0 238 95 439t279 323t424 123q302 0 476 -162t174 -465q0 -246 -91 -448
t-275 -330q-184 -127 -433 -127q-309 0 -479 168t-170 479z" />
    <glyph glyph-name="ohungarumlaut" unicode="&#x151;" horiz-adv-x="1214" 
d="M575 1206h-204l180 291h311zM985 1206h-205l181 291h311zM20 428q0 279 167 469t442 190q225 1 359 -113t134 -335q0 -287 -168 -477t-448 -191q-226 0 -356 117t-130 340zM311 428q-1 -100 55 -169t156 -69t174 76q137 141 136 372q-1 230 -214 230q-145 0 -226 -141
t-81 -299z" />
    <glyph glyph-name="OE" unicode="&#x152;" horiz-adv-x="2275" 
d="M635 -35q-266 0 -413 176q-146 176 -146 449q0 370 208 632q99 126 253 200t337 75q250 0 371 -168l29 133h1038l-57 -270h-739l-68 -313h676l-53 -250h-674l-78 -359h754l-58 -270h-1028l25 115l-4 4q-64 -76 -164 -115t-209 -39zM1159 987q0 119 -82 179
q-83 60 -223 61q-140 -1 -252 -103q-206 -189 -205 -532q0 -160 73 -258t216 -98t239 68q95 69 132 168t69 268q33 169 33 247z" />
    <glyph glyph-name="oe" unicode="&#x153;" horiz-adv-x="1896" 
d="M1546 688q0 72 -52 126t-156 54t-168 -58q-65 -58 -107 -167h479q4 29 4 45zM1231 -29q-133 0 -224 38t-153 138q-125 -176 -381 -176q-343 0 -430 304q-23 81 -23 176q0 245 178 441t439 195q111 0 208 -43t148 -129q51 76 157 124t206 48q223 -1 347 -123t124 -341
q0 -74 -21 -164h-772q-6 -33 -6 -70q0 -88 56 -143t153 -56q184 0 233 140h291q-55 -174 -198 -266t-332 -93zM311 396q0 -80 50 -142q51 -62 139 -64q222 -1 293 332q16 80 16 158t-46 133t-132 55t-149 -48q-106 -82 -152 -270q-18 -74 -19 -154z" />
    <glyph glyph-name="Racute" unicode="&#x154;" horiz-adv-x="1478" 
d="M913 1595h-204l180 291h311zM1249 424l-10 -254q0 -117 21 -170h-314q-14 61 -14 98l16 297q0 101 -54 139t-157 37h-303l-121 -571h-321l307 1462h698q436 10 437 -383q0 -149 -94 -261t-242 -132v-4q152 -49 151 -258zM780 801q141 0 237 58q95 58 95 170t-62 148
t-176 35h-305l-86 -411h297z" />
    <glyph glyph-name="racute" unicode="&#x155;" horiz-adv-x="796" 
d="M494 1206h-205l180 291h311zM799 1087q45 0 90 -6l-60 -282q-92 18 -122 18q-154 0 -231 -94t-111 -254l-99 -469h-291l222 1059h276l-43 -191l4 -4q48 109 146 166t219 57z" />
    <glyph glyph-name="Rcommaaccent" unicode="&#x156;" horiz-adv-x="1478" 
d="M465 -102h297l-31 -150q-31 -119 -105 -157t-212 -35l16 75q100 10 133 76h-137zM1249 424l-10 -254q0 -117 21 -170h-314q-14 61 -14 98l16 297q0 101 -54 139t-157 37h-303l-121 -571h-321l307 1462h698q436 10 437 -383q0 -149 -94 -261t-242 -132v-4
q152 -49 151 -258zM780 801q141 0 237 58q95 58 95 170t-62 148t-176 35h-305l-86 -411h297z" />
    <glyph glyph-name="rcommaaccent" unicode="&#x157;" horiz-adv-x="796" 
d="M-41 -102h297l-31 -150q-31 -119 -105 -157t-212 -35l16 75q100 10 133 76h-137zM799 1087q45 0 90 -6l-60 -282q-92 18 -122 18q-154 0 -231 -94t-111 -254l-99 -469h-291l222 1059h276l-43 -191l4 -4q48 109 146 166t219 57z" />
    <glyph glyph-name="Rcaron" unicode="&#x158;" horiz-adv-x="1478" 
d="M958 1595h-258l-170 291h205l103 -170l178 170h223zM1249 424l-10 -254q0 -117 21 -170h-314q-14 61 -14 98l16 297q0 101 -54 139t-157 37h-303l-121 -571h-321l307 1462h698q436 10 437 -383q0 -149 -94 -261t-242 -132v-4q152 -49 151 -258zM780 801q141 0 237 58
q95 58 95 170t-62 148t-176 35h-305l-86 -411h297z" />
    <glyph glyph-name="rcaron" unicode="&#x159;" horiz-adv-x="796" 
d="M672 1206h-258l-170 291h205l102 -170l178 170h223zM799 1087q45 0 90 -6l-60 -282q-92 18 -122 18q-154 0 -231 -94t-111 -254l-99 -469h-291l222 1059h276l-43 -191l4 -4q48 109 146 166t219 57z" />
    <glyph glyph-name="Sacute" unicode="&#x15a;" horiz-adv-x="1327" 
d="M881 1595h-205l180 291h311zM909 422q0 61 -46 100q-46 38 -95 56t-76 26t-77 22t-76 23q-168 49 -269 136q-100 87 -100 257q0 117 50 207q92 166 319 222q100 26 211 26q244 0 396 -116t152 -355h-305q4 115 -67 168q-72 53 -186 53t-190 -44q-75 -44 -75 -138
q0 -52 38 -87q38 -34 72 -48t51 -22t53 -18q36 -9 49 -12q13 -4 47 -12t38 -8q195 -51 293 -139t98 -270q0 -125 -53 -223q-91 -168 -331 -233q-101 -28 -212 -28q-308 0 -458 128t-150 392h305q-8 -145 77 -207q86 -62 218 -62t216 52q84 53 83 154z" />
    <glyph glyph-name="sacute" unicode="&#x15b;" horiz-adv-x="1062" 
d="M692 1206h-205l181 291h311zM548 893q-169 0 -169 -105q0 -36 30 -60t103 -46l145 -47q131 -41 205 -111t74 -194t-77 -207q-139 -152 -410 -152q-270 0 -396 135q-72 78 -71 195v43h270v-35q0 -67 63 -105t143 -38t133 31q54 31 54 89t-24 81q-25 23 -80 43l-224 71
q-121 41 -175 97t-54 174q0 116 77 196q136 141 392 139q187 0 304 -66q134 -74 130 -271h-270q-4 143 -173 143z" />
    <glyph glyph-name="Scircumflex" unicode="&#x15c;" horiz-adv-x="1327" 
d="M721 1886h258l170 -291h-205l-102 166l-178 -166h-224zM909 422q0 61 -46 100q-46 38 -95 56t-76 26t-77 22t-76 23q-168 49 -269 136q-100 87 -100 257q0 117 50 207q92 166 319 222q100 26 211 26q244 0 396 -116t152 -355h-305q4 115 -67 168q-72 53 -186 53t-190 -44
q-75 -44 -75 -138q0 -52 38 -87q38 -34 72 -48t51 -22t53 -18q36 -9 49 -12q13 -4 47 -12t38 -8q195 -51 293 -139t98 -270q0 -125 -53 -223q-91 -168 -331 -233q-101 -28 -212 -28q-308 0 -458 128t-150 392h305q-8 -145 77 -207q86 -62 218 -62t216 52q84 53 83 154z" />
    <glyph glyph-name="scircumflex" unicode="&#x15d;" horiz-adv-x="1062" 
d="M535 1497h258l170 -291h-205l-103 166l-178 -166h-223zM548 893q-169 0 -169 -105q0 -36 30 -60t103 -46l145 -47q131 -41 205 -111t74 -194t-77 -207q-139 -152 -410 -152q-270 0 -396 135q-72 78 -71 195v43h270v-35q0 -67 63 -105t143 -38t133 31q54 31 54 89t-24 81
q-25 23 -80 43l-224 71q-121 41 -175 97t-54 174q0 116 77 196q136 141 392 139q187 0 304 -66q134 -74 130 -271h-270q-4 143 -173 143z" />
    <glyph glyph-name="Scedilla" unicode="&#x15e;" horiz-adv-x="1327" 
d="M490 -338q84 0 83 68q0 66 -81 65q-45 0 -82 -14l-43 49l102 143q-199 25 -307 119q-152 127 -152 393h305q-8 -145 77 -207q86 -62 218 -62t216 52q84 53 83 154q0 61 -46 100q-46 38 -95 56t-76 26t-77 22t-76 23q-168 49 -269 136q-100 87 -100 257q0 117 50 207
q92 166 319 222q100 26 211 26q244 0 396 -116t152 -355h-305q4 115 -67 168q-72 53 -186 53t-190 -44q-75 -44 -75 -138q0 -52 38 -87q38 -34 72 -48t51 -22t53 -18q36 -9 49 -12q13 -4 47 -12t38 -8q195 -51 293 -139t98 -270q0 -125 -53 -223q-91 -168 -331 -233
q-101 -28 -175 -28t-92 2l-55 -76l6 -4q108 41 201 -22q55 -37 55 -107q0 -203 -240 -202q-131 0 -254 45l43 98q87 -37 171 -37z" />
    <glyph glyph-name="Scedilla" unicode="&#xf6c1;" horiz-adv-x="1327" 
d="M490 -338q84 0 83 68q0 66 -81 65q-45 0 -82 -14l-43 49l102 143q-199 25 -307 119q-152 127 -152 393h305q-8 -145 77 -207q86 -62 218 -62t216 52q84 53 83 154q0 61 -46 100q-46 38 -95 56t-76 26t-77 22t-76 23q-168 49 -269 136q-100 87 -100 257q0 117 50 207
q92 166 319 222q100 26 211 26q244 0 396 -116t152 -355h-305q4 115 -67 168q-72 53 -186 53t-190 -44q-75 -44 -75 -138q0 -52 38 -87q38 -34 72 -48t51 -22t53 -18q36 -9 49 -12q13 -4 47 -12t38 -8q195 -51 293 -139t98 -270q0 -125 -53 -223q-91 -168 -331 -233
q-101 -28 -175 -28t-92 2l-55 -76l6 -4q108 41 201 -22q55 -37 55 -107q0 -203 -240 -202q-131 0 -254 45l43 98q87 -37 171 -37z" />
    <glyph glyph-name="scedilla" unicode="&#x15f;" horiz-adv-x="1062" 
d="M315 -338q84 0 84 67t-82 66q-45 0 -81 -14l-43 49l108 154q-17 0 -27 4q-128 28 -210 106t-82 207v43h270v-35q0 -67 63 -105t143 -38t133 31q54 31 54 89t-24 81q-25 23 -80 43l-224 71q-121 41 -175 97t-54 174q0 116 77 196q136 141 392 139q187 0 304 -66
q134 -74 130 -271h-270q-4 143 -173 143t-169 -105q0 -36 30 -60t103 -46l145 -47q131 -41 205 -111t74 -194t-77 -207q-139 -152 -427 -152q-27 0 -39 2l-59 -82l6 -4q108 41 201 -22q55 -37 55 -107q0 -203 -240 -202q-131 0 -254 45l43 98q86 -37 170 -37z" />
    <glyph glyph-name="scedilla" unicode="&#xf6c2;" horiz-adv-x="1062" 
d="M315 -338q84 0 84 67t-82 66q-45 0 -81 -14l-43 49l108 154q-17 0 -27 4q-128 28 -210 106t-82 207v43h270v-35q0 -67 63 -105t143 -38t133 31q54 31 54 89t-24 81q-25 23 -80 43l-224 71q-121 41 -175 97t-54 174q0 116 77 196q136 141 392 139q187 0 304 -66
q134 -74 130 -271h-270q-4 143 -173 143t-169 -105q0 -36 30 -60t103 -46l145 -47q131 -41 205 -111t74 -194t-77 -207q-139 -152 -427 -152q-27 0 -39 2l-59 -82l6 -4q108 41 201 -22q55 -37 55 -107q0 -203 -240 -202q-131 0 -254 45l43 98q86 -37 170 -37z" />
    <glyph glyph-name="Scaron" unicode="&#x160;" horiz-adv-x="1327" 
d="M932 1595h-258l-170 291h205l102 -170l178 170h223zM909 422q0 61 -46 100q-46 38 -95 56t-76 26t-77 22t-76 23q-168 49 -269 136q-100 87 -100 257q0 117 50 207q92 166 319 222q100 26 211 26q244 0 396 -116t152 -355h-305q4 115 -67 168q-72 53 -186 53t-190 -44
q-75 -44 -75 -138q0 -52 38 -87q38 -34 72 -48t51 -22t53 -18q36 -9 49 -12q13 -4 47 -12t38 -8q195 -51 293 -139t98 -270q0 -125 -53 -223q-91 -168 -331 -233q-101 -28 -212 -28q-308 0 -458 128t-150 392h305q-8 -145 77 -207q86 -62 218 -62t216 52q84 53 83 154z" />
    <glyph glyph-name="scaron" unicode="&#x161;" horiz-adv-x="1062" 
d="M719 1206h-258l-170 291h205l102 -170l178 170h223zM548 893q-169 0 -169 -105q0 -36 30 -60t103 -46l145 -47q131 -41 205 -111t74 -194t-77 -207q-139 -152 -410 -152q-270 0 -396 135q-72 78 -71 195v43h270v-35q0 -67 63 -105t143 -38t133 31q54 31 54 89t-24 81
q-25 23 -80 43l-224 71q-121 41 -175 97t-54 174q0 116 77 196q136 141 392 139q187 0 304 -66q134 -74 130 -271h-270q-4 143 -173 143z" />
    <glyph glyph-name="Tcommaaccent" unicode="&#x162;" horiz-adv-x="1251" 
d="M315 -102h297l-30 -150q-31 -119 -106 -157t-212 -35l17 75q100 10 133 76h-138zM569 1192h-458l57 270h1221l-58 -270h-438l-250 -1192h-324z" />
    <glyph glyph-name="tcommaaccent" unicode="&#x163;" horiz-adv-x="757" 
d="M180 -102h297l-31 -150q-32 -119 -106 -157t-211 -35l16 75q100 10 134 76h-138zM410 280q0 -26 17 -44t35 -22t58 -3q41 0 92 6l-49 -225q-99 -10 -201 -10t-182 49t-76 166q0 33 15 100l119 567h-191l45 195h187l65 321h291l-66 -321h209l-45 -195h-207l-108 -526
q-8 -32 -8 -58z" />
    <glyph glyph-name="Tcaron" unicode="&#x164;" horiz-adv-x="1251" 
d="M926 1595h-258l-170 291h204l103 -170l178 170h223zM569 1192h-458l57 270h1221l-58 -270h-438l-250 -1192h-324z" />
    <glyph glyph-name="tcaron" unicode="&#x165;" horiz-adv-x="929" 
d="M410 280q0 -26 17 -44t35 -22t58 -3q41 0 92 6l-49 -225q-99 -10 -201 -10t-182 49t-76 166q0 33 15 100l119 567h-191l45 195h187l65 321h291l-66 -321h209l-45 -195h-207l-108 -526q-8 -32 -8 -58zM981 1171h-201l138 291h303z" />
    <glyph glyph-name="Tbar" unicode="&#x166;" horiz-adv-x="1251" 
d="M207 954h311l51 238h-458l57 270h1221l-58 -270h-438l-51 -238h317l-29 -153h-319l-168 -801h-324l168 801h-309z" />
    <glyph glyph-name="tbar" unicode="&#x167;" horiz-adv-x="757" 
d="M410 280q0 -26 17 -44t35 -22t58 -3q41 0 92 6l-49 -225q-99 -10 -201 -10t-182 49t-76 166q0 33 15 100l53 258h-207l29 154h211l33 155h-191l45 195h187l65 321h291l-66 -321h209l-45 -195h-207l-32 -155h227l-29 -154h-229l-45 -217q-8 -32 -8 -58z" />
    <glyph glyph-name="Utilde" unicode="&#x168;" horiz-adv-x="1517" 
d="M784 1702q-44 0 -60 -20q-17 -20 -30 -66h-125q25 114 81 182t177 68q39 0 131 -35q86 -37 134 -37t68 20q22 20 20 52h141l-18 -62q-5 -20 -25 -59q-55 -111 -172 -112q-73 -1 -182 34q-96 35 -140 35zM653 -35q-153 0 -277 40t-211 141t-87 253q0 63 31 217l178 846
h321l-178 -846q-31 -141 -31 -184q1 -74 63 -135t210 -61t221 56t108 180q14 46 31 124l182 866h322l-178 -850q-70 -334 -226 -490t-479 -157z" />
    <glyph glyph-name="utilde" unicode="&#x169;" horiz-adv-x="1251" 
d="M598 1313q-43 -1 -60 -21t-30 -65h-125q25 113 81 181t177 69q39 0 131 -35q86 -37 133 -37t69 20t19 52h142q-41 -139 -91 -185q-50 -47 -124 -48t-183 34q-96 35 -139 35zM358 -29q-309 0 -309 285q0 72 31 182l131 621h291l-129 -621q-18 -55 -19 -129q0 -45 43 -77
t97 -31q124 0 196 84t101 211l118 563h291l-221 -1059h-279l33 147h-4q-141 -176 -371 -176z" />
    <glyph glyph-name="Umacron" unicode="&#x16a;" horiz-adv-x="1517" 
d="M651 1810h625l-29 -153h-624zM653 -35q-153 0 -277 40t-211 141t-87 253q0 63 31 217l178 846h321l-178 -846q-31 -141 -31 -184q1 -74 63 -135t210 -61t221 56t108 180q14 46 31 124l182 866h322l-178 -850q-70 -334 -226 -490t-479 -157z" />
    <glyph glyph-name="umacron" unicode="&#x16b;" horiz-adv-x="1251" 
d="M453 1421h624l-28 -153h-625zM358 -29q-309 0 -309 285q0 72 31 182l131 621h291l-129 -621q-18 -55 -19 -129q0 -45 43 -77t97 -31q124 0 196 84t101 211l118 563h291l-221 -1059h-279l33 147h-4q-141 -176 -371 -176z" />
    <glyph glyph-name="Ubreve" unicode="&#x16c;" horiz-adv-x="1517" 
d="M927 1745q85 0 138 36t92 109h135q-86 -299 -387 -299q-141 0 -224 81t-83 218h133q7 -72 59 -108t137 -37zM653 -35q-153 0 -277 40t-211 141t-87 253q0 63 31 217l178 846h321l-178 -846q-31 -141 -31 -184q1 -74 63 -135t210 -61t221 56t108 180q14 46 31 124l182 866
h322l-178 -850q-70 -334 -226 -490t-479 -157z" />
    <glyph glyph-name="ubreve" unicode="&#x16d;" horiz-adv-x="1251" 
d="M730 1356q85 0 138 36t93 109h135q-86 -299 -387 -299q-141 0 -225 81q-83 81 -83 218h134q6 -73 58 -109t137 -36zM358 -29q-309 0 -309 285q0 72 31 182l131 621h291l-129 -621q-18 -55 -19 -129q0 -45 43 -77t97 -31q124 0 196 84t101 211l118 563h291l-221 -1059
h-279l33 147h-4q-141 -176 -371 -176z" />
    <glyph glyph-name="Uring" unicode="&#x16e;" horiz-adv-x="1517" 
d="M805 1769q0 -61 34 -99t93 -38t94 38t35 99t-35 99t-94 39q-59 -1 -93 -39t-34 -99zM682 1766q0 106 72 178t177 72t178 -72q73 -70 73 -177t-70 -175t-182 -66q-112 0 -180 67t-68 173zM653 -35q-153 0 -277 40t-211 141t-87 253q0 63 31 217l178 846h321l-178 -846
q-31 -141 -31 -184q1 -74 63 -135t210 -61t221 56t108 180q14 46 31 124l182 866h322l-178 -850q-70 -334 -226 -490t-479 -157z" />
    <glyph glyph-name="uring" unicode="&#x16f;" horiz-adv-x="1251" 
d="M606 1401q0 -61 34 -99t93 -38t94 38t35 99t-35 99t-94 38t-93 -38t-34 -99zM983 1398q0 -106 -70 -174q-69 -68 -181 -67q-112 -1 -180 67t-69 174q0 106 72 178q72 71 177 71t178 -71q73 -72 73 -178zM358 -29q-309 0 -309 285q0 72 31 182l131 621h291l-129 -621
q-18 -55 -19 -129q0 -45 43 -77t97 -31q124 0 196 84t101 211l118 563h291l-221 -1059h-279l33 147h-4q-141 -176 -371 -176z" />
    <glyph glyph-name="Uhungarumlaut" unicode="&#x170;" horiz-adv-x="1517" 
d="M821 1595h-205l181 291h311zM1231 1595h-205l180 291h312zM653 -35q-153 0 -277 40t-211 141t-87 253q0 63 31 217l178 846h321l-178 -846q-31 -141 -31 -184q1 -74 63 -135t210 -61t221 56t108 180q14 46 31 124l182 866h322l-178 -850q-70 -334 -226 -490t-479 -157z
" />
    <glyph glyph-name="uhungarumlaut" unicode="&#x171;" horiz-adv-x="1251" 
d="M627 1206h-205l180 291h311zM1036 1206h-205l181 291h311zM358 -29q-309 0 -309 285q0 72 31 182l131 621h291l-129 -621q-18 -55 -19 -129q0 -45 43 -77t97 -31q124 0 196 84t101 211l118 563h291l-221 -1059h-279l33 147h-4q-141 -176 -371 -176z" />
    <glyph glyph-name="Uogonek" unicode="&#x172;" horiz-adv-x="1517" 
d="M317 -262q0 127 224 233q-239 29 -362 156q-101 104 -101 272q0 63 31 217l178 846h321l-178 -846q-31 -141 -31 -184q1 -74 63 -135t210 -61t221 56t108 180q14 46 31 124l182 866h322l-178 -850q-50 -250 -146 -396t-270 -210q-109 -35 -246 -41q-16 -10 -63 -41
q-119 -92 -119 -176q0 -31 24 -50t56 -20q63 0 119 62l94 -51q-104 -133 -259 -133q-231 0 -231 182z" />
    <glyph glyph-name="uogonek" unicode="&#x173;" horiz-adv-x="1251" 
d="M651 -236q1 -44 21 -65q56 -55 153 35l76 -45q-90 -133 -229 -133q-51 0 -97 20q-90 38 -90 162q0 25 15 67q29 74 200 195l33 147h-4q-141 -176 -371 -176q-309 0 -309 285q0 72 31 182l131 621h291l-129 -621q-18 -55 -19 -129q0 -45 43 -77t97 -31q124 0 196 84
t101 211l118 563h291l-221 -1059h-152q-111 -96 -143 -144t-33 -92z" />
    <glyph glyph-name="Wcircumflex" unicode="&#x174;" horiz-adv-x="1933" 
d="M1051 1886h258l170 -291h-205l-103 166l-178 -166h-223zM1389 0h-320l-37 1044h-4l-455 -1044h-323l-100 1462h321l21 -1071h4l462 1071h308l37 -1067h4l446 1067h322z" />
    <glyph glyph-name="wcircumflex" unicode="&#x175;" horiz-adv-x="1669" 
d="M834 1497h258l170 -291h-205l-103 166l-178 -166h-223zM1155 0h-303l-37 743h-4l-328 -743h-305l-117 1059h297l41 -746h4l326 746h295l33 -740h4l340 740h307z" />
    <glyph glyph-name="Ycircumflex" unicode="&#x176;" horiz-adv-x="1327" 
d="M745 1886h259l170 -291h-205l-103 166l-178 -166h-223zM475 567l-350 895h330l219 -622l454 622h379l-712 -909l-113 -553h-324z" />
    <glyph glyph-name="ycircumflex" unicode="&#x177;" horiz-adv-x="1062" 
d="M530 1497h258l170 -291h-204l-103 166l-178 -166h-223zM27 -373q-29 0 -82 5t-74 6l49 241l119 -12q47 0 83 16q36 15 49 31t34 52q20 36 26 44l-188 1049h299l92 -758h4l367 758h307l-674 -1209q-74 -133 -160 -178t-251 -45z" />
    <glyph glyph-name="Ydieresis" unicode="&#x178;" horiz-adv-x="1327" 
d="M926 1853h268l-49 -239h-268zM524 1853h269l-50 -239h-268zM475 567l-350 895h330l219 -622l454 622h379l-712 -909l-113 -553h-324z" />
    <glyph glyph-name="Zacute" unicode="&#x179;" horiz-adv-x="1327" 
d="M901 1595h-205l181 291h311zM-33 266l977 926h-749l59 270h1155l-53 -258l-985 -934h825l-53 -270h-1231z" />
    <glyph glyph-name="zacute" unicode="&#x17a;" horiz-adv-x="1024" 
d="M680 1206h-205l180 291h312zM-59 215l663 625h-510l47 219h889l-45 -215l-666 -625h584l-47 -219h-960z" />
    <glyph glyph-name="Zdotaccent" unicode="&#x17b;" horiz-adv-x="1327" 
d="M752 1853h268l-49 -239h-269zM-33 266l977 926h-749l59 270h1155l-53 -258l-985 -934h825l-53 -270h-1231z" />
    <glyph glyph-name="zdotaccent" unicode="&#x17c;" horiz-adv-x="1024" 
d="M524 1464h269l-50 -239h-268zM-59 215l663 625h-510l47 219h889l-45 -215l-666 -625h584l-47 -219h-960z" />
    <glyph glyph-name="Zcaron" unicode="&#x17d;" horiz-adv-x="1327" 
d="M958 1595h-258l-170 291h205l103 -170l178 170h223zM-33 266l977 926h-749l59 270h1155l-53 -258l-985 -934h825l-53 -270h-1231z" />
    <glyph glyph-name="zcaron" unicode="&#x17e;" horiz-adv-x="1024" 
d="M725 1206h-258l-170 291h205l102 -170l178 170h224zM-59 215l663 625h-510l47 219h889l-45 -215l-666 -625h584l-47 -219h-960z" />
    <glyph glyph-name="florin" unicode="&#x192;" horiz-adv-x="1138" 
d="M954 1497q18 0 172 -16l-57 -211l-86 8q-45 0 -63 -9t-27 -13q-11 -4 -21 -18q-10 -13 -16 -20t-24 -49q-18 -41 -21 -51l-61 -233h213l-54 -195h-217l-174 -643q-53 -203 -149 -299t-291 -96q-27 0 -76 4t-65 4l57 213l74 -2q82 0 118 74q23 47 35 89t15 50l165 606
h-196l57 195h195l80 301q70 311 417 311z" />
    <glyph glyph-name="Scommaaccent" unicode="&#x218;" horiz-adv-x="1327" 
d="M426 -102h297l-31 -150q-32 -119 -106 -157t-211 -35l16 75q100 10 133 76h-137zM909 422q0 61 -46 100q-46 38 -95 56t-76 26t-77 22t-76 23q-168 49 -269 136q-100 87 -100 257q0 117 50 207q92 166 319 222q100 26 211 26q244 0 396 -116t152 -355h-305q4 115 -67 168
q-72 53 -186 53t-190 -44q-75 -44 -75 -138q0 -52 38 -87q38 -34 72 -48t51 -22t53 -18q36 -9 49 -12q13 -4 47 -12t38 -8q195 -51 293 -139t98 -270q0 -125 -53 -223q-91 -168 -331 -233q-101 -28 -212 -28q-308 0 -458 128t-150 392h305q-8 -145 77 -207q86 -62 218 -62
t216 52q84 53 83 154z" />
    <glyph glyph-name="scommaaccent" unicode="&#x219;" horiz-adv-x="1062" 
d="M260 -102h297l-31 -150q-32 -119 -106 -157t-211 -35l16 75q100 10 133 76h-137zM548 893q-169 0 -169 -105q0 -36 30 -60t103 -46l145 -47q131 -41 205 -111t74 -194t-77 -207q-139 -152 -410 -152q-270 0 -396 135q-72 78 -71 195v43h270v-35q0 -67 63 -105t143 -38
t133 31q54 31 54 89t-24 81q-25 23 -80 43l-224 71q-121 41 -175 97t-54 174q0 116 77 196q136 141 392 139q187 0 304 -66q134 -74 130 -271h-270q-4 143 -173 143z" />
    <glyph glyph-name="uni021A" unicode="&#x21a;" horiz-adv-x="1251" 
d="M315 -102h297l-30 -150q-31 -119 -106 -157t-212 -35l17 75q100 10 133 76h-138zM569 1192h-458l57 270h1221l-58 -270h-438l-250 -1192h-324z" />
    <glyph glyph-name="uni021B" unicode="&#x21b;" horiz-adv-x="757" 
d="M180 -102h297l-31 -150q-32 -119 -106 -157t-211 -35l16 75q100 10 134 76h-138zM410 280q0 -26 17 -44t35 -22t58 -3q41 0 92 6l-49 -225q-99 -10 -201 -10t-182 49t-76 166q0 33 15 100l119 567h-191l45 195h187l65 321h291l-66 -321h209l-45 -195h-207l-108 -526
q-8 -32 -8 -58z" />
    <glyph glyph-name="circumflex" unicode="&#x2c6;" 
d="M299 1497h258l170 -291h-205l-102 166l-178 -166h-224z" />
    <glyph glyph-name="caron" unicode="&#x2c7;" 
d="M492 1206h-259l-170 291h205l103 -170l178 170h223z" />
    <glyph glyph-name="uni02C9" unicode="&#x2c9;" 
d="M100 1421h625l-29 -153h-624z" />
    <glyph glyph-name="breve" unicode="&#x2d8;" 
d="M406 1356q85 0 139 36q53 36 92 109h135q-86 -299 -387 -299q-141 0 -224 81t-83 218h133q6 -73 58 -109t137 -36z" />
    <glyph glyph-name="dotaccent" unicode="&#x2d9;" 
d="M285 1464h268l-49 -239h-268z" />
    <glyph glyph-name="ring" unicode="&#x2da;" 
d="M272 1401q0 -61 34 -99t93 -38t95 38q35 38 34 99q0 61 -34 99t-94 38t-94 -38t-34 -99zM398 1647q104 0 178 -71q74 -72 74 -178t-70 -174t-182 -67q-112 -1 -180 67t-68 174t71 178q72 71 177 71z" />
    <glyph glyph-name="ogonek" unicode="&#x2db;" 
d="M455 0q-240 -140 -240 -238q0 -44 24 -64q24 -19 56 -20q63 0 119 62l94 -51q-104 -133 -259 -133t-205 82q-26 41 -26 83q0 43 10 69q52 131 294 210h133z" />
    <glyph glyph-name="tilde" unicode="&#x2dc;" 
d="M242 1313q-42 -1 -60 -21t-30 -65h-125q25 113 81 181t177 69q39 0 131 -35q86 -37 133 -37t69 20t19 52h141l-18 -61q-6 -20 -26 -60q-55 -111 -170 -112q-74 -1 -183 34q-96 35 -139 35z" />
    <glyph glyph-name="hungarumlaut" unicode="&#x2dd;" 
d="M193 1206h-205l180 291h311zM602 1206h-205l181 291h311z" />
    <glyph glyph-name="uni0394" unicode="&#x394;" horiz-adv-x="1437" 
d="M-141 0l841 1458h293l260 -1458h-1394zM799 1151l-500 -899h649z" />
    <glyph glyph-name="uni03A9" unicode="&#x3a9;" horiz-adv-x="1554" 
d="M1456 944q0 -234 -137 -418t-350 -221l-15 -72h371l-49 -233h-588l88 424q166 25 274 163t108 299t-85 252q-84 91 -233 91q-197 0 -330 -156t-133 -356q0 -117 53 -196t166 -97l-90 -424h-576l50 233h356l18 80q-132 43 -202 153t-70 255q0 319 231 537t551 219
q252 1 422 -149t170 -384z" />
    <glyph glyph-name="uni03BC" unicode="&#x3bc;" horiz-adv-x="1251" 
d="M358 -29q-39 0 -90 11l-73 -355h-291l307 1432h291l-129 -621q-18 -55 -19 -129q0 -45 43 -77t97 -31q124 0 196 84t101 211l118 563h291l-221 -1059h-279l33 147h-4q-141 -176 -371 -176z" />
    <glyph glyph-name="pi" unicode="&#x3c0;" horiz-adv-x="1247" 
d="M938 254q0 -47 53 -47t103 22l-41 -194q-109 -51 -205 -51q-195 0 -195 157q0 33 19 125l104 494h-356l-164 -760h-262l162 760h-148l53 241h1192l-51 -241h-164l-86 -414q-14 -72 -14 -92z" />
    <glyph glyph-name="endash" unicode="&#x2013;" horiz-adv-x="1024" 
d="M-6 684h1024l-53 -250h-1024z" />
    <glyph glyph-name="emdash" unicode="&#x2014;" horiz-adv-x="2048" 
d="M260 684h1516l-54 -250h-1515z" />
    <glyph glyph-name="quoteleft" unicode="&#x2018;" horiz-adv-x="569" 
d="M483 805h-323l65 315q33 154 122 245t274 97l-31 -143q-88 -15 -126 -61t-56 -138h141z" />
    <glyph glyph-name="quoteright" unicode="&#x2019;" horiz-adv-x="569" 
d="M291 1462h323l-65 -315q-33 -156 -122 -246t-273 -96l30 143q88 16 126 62t57 137h-142z" />
    <glyph glyph-name="quotesinglbase" unicode="&#x201a;" horiz-adv-x="569" 
d="M39 315h323l-65 -315q-33 -156 -122 -246t-273 -96l30 143q88 15 126 61t57 138h-142z" />
    <glyph glyph-name="quotedblleft" unicode="&#x201c;" horiz-adv-x="985" 
d="M459 805h-324l66 315q33 154 122 245t273 97l-31 -143q-88 -15 -126 -61t-56 -138h141zM891 805h-324l66 315q33 154 122 245t273 97l-31 -143q-88 -15 -126 -61t-56 -138h141z" />
    <glyph glyph-name="quotedblright" unicode="&#x201d;" horiz-adv-x="985" 
d="M698 1462h324l-66 -315q-34 -156 -122 -246t-273 -96l31 143q88 16 126 62t56 137h-141zM266 1462h324l-66 -315q-33 -156 -122 -246t-273 -96l31 143q88 16 126 62t56 137h-141z" />
    <glyph glyph-name="quotedblbase" unicode="&#x201e;" horiz-adv-x="985" 
d="M43 315h324l-66 -315q-33 -156 -122 -246t-273 -96l31 143q87 15 125 61t57 138h-142zM475 315h324l-66 -315q-33 -156 -122 -246t-273 -96l31 143q88 15 126 61t56 138h-141z" />
    <glyph glyph-name="dagger" unicode="&#x2020;" horiz-adv-x="1214" 
d="M496 819h-385l51 240h385l84 403h270l-84 -403h385l-51 -240h-385l-242 -1159h-270z" />
    <glyph glyph-name="daggerdbl" unicode="&#x2021;" horiz-adv-x="1214" 
d="M338 55h-385l49 240h385l111 524h-381l47 240h385l84 403h270l-84 -403h385l-51 -240h-385l-111 -524h385l-49 -240h-385l-84 -395h-270z" />
    <glyph glyph-name="bullet" unicode="&#x2022;" horiz-adv-x="1024" 
d="M147 731q1 152 107 258q106 107 258 107t260 -106t107 -259q0 -151 -108 -259q-107 -108 -259 -108t-258 108q-106 107 -107 259z" />
    <glyph glyph-name="ellipsis" unicode="&#x2026;" horiz-adv-x="2048" 
d="M782 315h324l-68 -315h-323zM1464 315h324l-68 -315h-323zM100 315h324l-68 -315h-323z" />
    <glyph glyph-name="perthousand" unicode="&#x2030;" horiz-adv-x="2314" 
d="M827 246q-1 174 93 302t260 128q126 0 196 -67t70 -189q0 -184 -93 -316t-270 -133q-125 0 -191 74t-65 201zM1012 231q0 -127 86 -127q43 0 86 47t68 189q10 51 10 94t-23 76t-63 33q-78 0 -121 -109t-43 -203zM1546 246q0 174 93 302t259 128q125 0 196 -67t71 -189
q0 -184 -93 -316t-270 -133q-124 0 -190 74t-66 201zM1731 231q0 -127 86 -127q113 0 154 236q9 51 9 94t-22 76q-23 33 -64 33q-78 0 -120 -109t-43 -203zM1257 1479h175l-1100 -1524h-176zM143 1032q-1 174 93 302t260 128q126 0 196 -66t70 -190q0 -184 -93 -316
t-270 -132q-125 0 -191 74t-65 200zM328 1018q0 -127 86 -127q113 0 154 235q22 122 -7 162q-29 41 -69 41q-78 -1 -121 -109t-43 -202z" />
    <glyph glyph-name="guilsinglleft" unicode="&#x2039;" 
d="M35 446l57 267l371 235l-53 -252l-226 -139l158 -174l-45 -219z" />
    <glyph glyph-name="guilsinglright" unicode="&#x203a;" 
d="M418 666l-58 -267l-370 -235l53 252l225 139l-157 174l45 219z" />
    <glyph glyph-name="fraction" unicode="&#x2044;" horiz-adv-x="342" 
d="M508 1479h174l-844 -1524h-178z" />
    <glyph glyph-name="afii61289" unicode="&#x2113;" horiz-adv-x="1024" 
d="M795 1206q1 39 -17 65t-47 25q-74 0 -106 -145l-80 -367q106 90 178 205t72 217zM1024 1219q0 -170 -130 -331t-400 -343q-57 -238 -58 -281q0 -92 90 -92q76 0 201 80h4l68 -158q-172 -123 -355 -123q-134 0 -208 67t-74 177q0 29 24 150l-125 -91h-4l-71 154l250 170
l102 485q39 184 151 289q113 104 271 105q116 -1 190 -75t74 -183z" />
    <glyph glyph-name="trademark" unicode="&#x2122;" horiz-adv-x="2027" 
d="M1901 618h-197v599h-4l-217 -599h-142l-217 599h-4v-599h-196v844h278l211 -555l211 555h277v-844zM815 1298h-240v-680h-208v680h-240v164h688v-164z" />
    <glyph glyph-name="Omega" unicode="&#x2126;" horiz-adv-x="1554" 
d="M1456 944q0 -234 -137 -418t-350 -221l-15 -72h371l-49 -233h-588l88 424q166 25 274 163t108 299t-85 252q-84 91 -233 91q-197 0 -330 -156t-133 -356q0 -117 53 -196t166 -97l-90 -424h-576l50 233h356l18 80q-132 43 -202 153t-70 255q0 319 231 537t551 219
q252 1 422 -149t170 -384z" />
    <glyph glyph-name="estimated" unicode="&#x212e;" horiz-adv-x="1228" 
d="M918 604v297q-130 123 -302 123t-294 -123v-297h596zM322 530v-370q121 -121 296 -121q250 0 396 246l71 -43q-94 -147 -200 -212t-267 -65q-236 0 -382 162q-146 163 -146 405t146 403t382 161t382 -158t149 -408h-827z" />
    <glyph glyph-name="partialdiff" unicode="&#x2202;" horiz-adv-x="1171" 
d="M550 705q-122 0 -183 -80t-61 -191q0 -112 53 -188t149 -76t157 63q112 118 103 312v49q-96 111 -218 111zM1042 746q0 -130 -12 -230t-49 -204t-93 -177q-56 -74 -152 -120t-222 -46q-209 0 -339 133t-130 337t127 334t324 130q147 0 274 -96v29q0 104 -21 194
q-22 90 -89 164q-68 74 -180 74t-238 -109l-144 164q94 78 182 115t218 37q130 1 244 -63t178 -173q122 -211 122 -493z" />
    <glyph glyph-name="Delta" unicode="&#x2206;" horiz-adv-x="1437" 
d="M-141 0l841 1458h293l260 -1458h-1394zM799 1151l-500 -899h649z" />
    <glyph glyph-name="product" unicode="&#x220f;" horiz-adv-x="1533" 
d="M1419 -438h-270v1790h-764v-1790h-272v2048h1306v-2048z" />
    <glyph glyph-name="summation" unicode="&#x2211;" horiz-adv-x="1378" 
d="M1323 -438h-1268v225l604 811l-579 786v226h1218v-258h-856l539 -752l-573 -780h915v-258z" />
    <glyph glyph-name="minus" unicode="&#x2212;" horiz-adv-x="1228" 
d="M98 627h1035v-219h-1035v219z" />
    <glyph glyph-name="uni2215" unicode="&#x2215;" horiz-adv-x="342" 
d="M508 1479h174l-844 -1524h-178z" />
    <glyph glyph-name="uni2219" unicode="&#x2219;" horiz-adv-x="569" 
d="M88 589q0 71 52 122t122 51t121 -51t51 -121t-51 -122t-121 -52t-122 51t-52 122z" />
    <glyph glyph-name="radical" unicode="&#x221a;" horiz-adv-x="1167" 
d="M1139 1610l-447 -2048h-248l-301 620l-110 -53l-101 215l351 160l241 -522l330 1628h285z" />
    <glyph glyph-name="infinity" unicode="&#x221e;" horiz-adv-x="1736" 
d="M410 713q-70 0 -112 -49t-42 -121t43 -118t115 -46q129 0 256 162q-147 172 -260 172zM1362 546q0 73 -43 121t-117 48q-106 0 -256 -174q141 -164 262 -164q72 0 113 48t41 121zM1583 548q0 -175 -101 -291t-276 -116q-119 1 -212 63t-185 175q-102 -117 -186 -175
t-207 -59q-174 0 -279 114q-104 114 -104 289t101 288t274 112q127 0 214 -62t187 -188q90 121 181 186t218 64q172 0 274 -112q101 -113 101 -288z" />
    <glyph glyph-name="integral" unicode="&#x222b;" horiz-adv-x="1286" 
d="M467 1096q0 118 17 211t38 129q58 99 102 121q94 47 189 48q94 1 172 -44t78 -113t-35 -104q-35 -38 -85 -38t-78 28t-36 62q-21 89 -53 89q-39 0 -39 -76l13 -330v-987q0 -295 -90 -414q-36 -50 -100 -82t-154 -32q-88 0 -168 49t-80 133q0 51 38 84t87 33t75 -28
q26 -27 33 -61q16 -90 49 -89q39 0 39 71l-12 295v1045z" />
    <glyph glyph-name="approxequal" unicode="&#x2248;" horiz-adv-x="1214" 
d="M296 246q-58 0 -89 -36t-39 -89h-174q8 157 90 273t229 116q78 0 255 -62t259 -63q96 0 117 123h176q-14 -166 -91 -280t-228 -113q-80 -1 -264 65q-183 66 -241 66zM300 711q-62 0 -93 -37t-37 -88h-174q14 170 95 274t243 105q84 1 248 -57t245 -58q104 0 119 121h176
q-25 -264 -196 -355q-66 -34 -136 -34t-250 64q-178 64 -240 65z" />
    <glyph glyph-name="notequal" unicode="&#x2260;" horiz-adv-x="1214" 
d="M1104 174h-586l-160 -321l-233 116l104 205h-217v266h348l107 211h-455v264h586l162 322l231 -117l-102 -205h215v-264h-346l-107 -211h453v-266z" />
    <glyph glyph-name="lessequal" unicode="&#x2264;" horiz-adv-x="1214" 
d="M1104 -88h-1092v264h1092v-264zM1104 233l-1092 345v264l1092 338v-277l-723 -192l723 -201v-277z" />
    <glyph glyph-name="greaterequal" unicode="&#x2265;" horiz-adv-x="1214" 
d="M1104 -88h-1092v264h1092v-264zM1104 578l-1092 -345v277l725 201l-725 192v277l1092 -338v-264z" />
    <glyph glyph-name="lozenge" unicode="&#x25ca;" horiz-adv-x="1214" 
d="M836 729l-230 535l-229 -535l229 -536zM1108 729l-381 -801h-244l-377 801l379 801h242z" />
    <glyph glyph-name="commaaccent" unicode="&#xf004;" horiz-adv-x="569" 
d="M55 -102h297l-30 -150q-31 -119 -106 -157t-212 -35l16 75q100 10 134 76h-138z" />
    <glyph glyph-name="commaaccent" unicode="&#xf6c3;" horiz-adv-x="569" 
d="M55 -102h297l-30 -150q-31 -119 -106 -157t-212 -35l16 75q100 10 134 76h-138z" />
    <glyph glyph-name="dotlessj" unicode="&#xf6be;" 
d="M-122 -133q50 0 72 51t32 91l12 48l211 1002h291l-232 -1098q-39 -178 -122 -256t-271 -78q-27 0 -75 5t-66 6l49 233q71 -4 99 -4z" />
    <glyph glyph-name="dotlessj" unicode="&#xfb0f;" 
d="M-122 -133q50 0 72 51t32 91l12 48l211 1002h291l-232 -1098q-39 -178 -122 -256t-271 -78q-27 0 -75 5t-66 6l49 233q71 -4 99 -4z" />
    <glyph glyph-name="uniF8FF" unicode="&#xf8ff;" horiz-adv-x="1048" 
d="M1049 1470v-1470h-1049v1470h1049zM946 102v1264h-844v-1264h844zM524 1145q-145 0 -168 -195l-102 17q14 141 88 211t186 70t185 -74q72 -74 71 -195q0 -70 -26 -123t-103 -122q-76 -68 -88 -108t-12 -147h-94l-4 35q1 115 29 169t92 118q63 59 82 94q20 35 20 93
t-46 107q-46 50 -110 50zM455 240v137h114v-137h-114z" />
    <glyph glyph-name="commaaccent.alt" horiz-adv-x="569" 
d="M426 1272h-297l31 149q31 119 105 157q75 38 212 36l-16 -76q-100 -10 -133 -76h137z" />
    <glyph glyph-name="caron.alt" 
d="M514 1171h-201l138 291h303z" />
    <glyph glyph-name="grave.cap" 
d="M541 1595h-205l-287 291h311z" />
    <glyph glyph-name="acute.cap" 
d="M479 1595h-205l181 291h311z" />
    <glyph glyph-name="circumflex.cap" 
d="M299 1886h258l170 -291h-205l-102 166l-178 -166h-224z" />
    <glyph glyph-name="caron.cap" 
d="M492 1595h-259l-170 291h205l103 -170l178 170h223z" />
    <glyph glyph-name="tilde.cap" 
d="M242 1702q-42 0 -60 -20t-30 -66h-125q25 114 81 182t177 68q39 0 131 -35q86 -37 133 -37t69 20t19 52h141l-18 -62q-6 -20 -26 -59q-55 -111 -171 -112q-73 -1 -182 34q-96 35 -139 35z" />
    <glyph glyph-name="dieresis.cap" 
d="M485 1853h269l-49 -239h-269zM84 1853h268l-49 -239h-268z" />
    <glyph glyph-name="macron.cap" 
d="M100 1810h625l-29 -153h-624z" />
    <glyph glyph-name="breve.cap" 
d="M406 1745q85 0 139 36q53 36 92 109h135q-86 -299 -387 -299q-141 0 -224 81t-83 218h133q6 -72 58 -108t137 -37z" />
    <glyph glyph-name="ring.cap" 
d="M272 1774q0 -62 34 -100t93 -38t95 38q34 38 34 100t-34 99q-34 38 -94 38t-94 -38t-34 -99zM150 1772q0 106 71 177q72 71 177 71t179 -71q73 -71 73 -177t-70 -175q-70 -67 -182 -67t-180 68t-68 174z" />
    <glyph glyph-name="hungarumlaut.cap" 
d="M193 1595h-205l180 291h311zM602 1595h-205l181 291h311z" />
    <glyph glyph-name="dotaccent.cap" 
d="M285 1769h268l-49 -239h-268z" />
  </font>
</defs>
</svg>
